<svg version="1.1" xmlns="http://www.w3.org/2000/svg" viewBox="0 0 2875.3664039657615 1846.0973060627632" width="5750.732807931523" height="3692.1946121255264" filter="invert(93%) hue-rotate(180deg)">
  <!-- svg-source:excalidraw -->
  
  <defs>
    <style class="style-fonts">
      @font-face {
        font-family: "Virgil";
        src: url("https://excalidraw.com/Virgil.woff2");
      }
      @font-face {
        font-family: "Cascadia";
        src: url("https://excalidraw.com/Cascadia.woff2");
      }
      @font-face {
        font-family: "Assistant";
        src: url("https://excalidraw.com/Assistant-Regular.woff2");
      }
    </style>
    
  </defs>
  <rect x="0" y="0" width="2875.3664039657615" height="1846.0973060627632" fill="#ffffff"></rect><g transform="translate(1010.266915997451 121.42071746288298) rotate(0 333.39556884765625 48.10988526864378)"><text x="0" y="0" font-family="Virgil, Segoe UI Emoji" font-size="76.97581642983003px" fill="#1e1e1e" text-anchor="start" style="white-space: pre;" direction="ltr" dominant-baseline="text-before-edge">Tokenized Assets</text></g><g transform="translate(540.0100999587216 523.7334627097036) rotate(0 226.18258666992188 36.29822653818758)"><text x="0" y="0" font-family="Virgil, Segoe UI Emoji" font-size="58.07716246110006px" fill="#1e1e1e" text-anchor="start" style="white-space: pre;" direction="ltr" dominant-baseline="text-before-edge">Synthetic Asset</text></g><g transform="translate(1773.8311641144599 544.1501085194075) rotate(0 198.976806640625 36.29822653818758)"><text x="0" y="0" font-family="Virgil, Segoe UI Emoji" font-size="58.07716246110006px" fill="#1e1e1e" text-anchor="start" style="white-space: pre;" direction="ltr" dominant-baseline="text-before-edge">Backed Asset</text></g><g stroke-linecap="round" transform="translate(10 10) rotate(0 1427.6832019828807 913.0486530313816)"><path d="M32 0 C1018.49 -5.63, 2004.11 -6.95, 2823.37 0 M32 0 C805.59 4.73, 1578.52 4.72, 2823.37 0 M2823.37 0 C2843.52 -1.6, 2856.36 9.32, 2855.37 32 M2823.37 0 C2843.99 1.95, 2856.33 9.17, 2855.37 32 M2855.37 32 C2852.45 618.46, 2853.06 1205.83, 2855.37 1794.1 M2855.37 32 C2859.09 680.88, 2859.06 1330.67, 2855.37 1794.1 M2855.37 1794.1 C2854.2 1814.63, 2845.59 1825.38, 2823.37 1826.1 M2855.37 1794.1 C2856.16 1815.38, 2844.61 1824.46, 2823.37 1826.1 M2823.37 1826.1 C2169.84 1834.39, 1516.44 1834.56, 32 1826.1 M2823.37 1826.1 C1786.33 1824.97, 749.05 1825.28, 32 1826.1 M32 1826.1 C8.85 1824.45, 1.72 1815.87, 0 1794.1 M32 1826.1 C12.37 1824.94, -0.06 1814.91, 0 1794.1 M0 1794.1 C6.13 1260.21, 5.93 727.08, 0 32 M0 1794.1 C4.57 1225.27, 5.33 656.98, 0 32 M0 32 C-0.01 10, 9.59 -1.7, 32 0 M0 32 C-0.6 12.58, 9.49 1.33, 32 0" stroke="#1e1e1e" stroke-width="2" fill="none"></path></g><g stroke-linecap="round" transform="translate(1009.8195112384294 276.30345644658087) rotate(0 103.91202054666098 90.29493644782713)"><path d="M81.96 2.1 C93.71 -1.51, 108.51 0.21, 121.47 2.32 C134.44 4.43, 148.38 8.63, 159.75 14.75 C171.12 20.87, 182.19 29.78, 189.69 39.03 C197.19 48.29, 201.92 59.01, 204.74 70.28 C207.57 81.54, 208.97 95.16, 206.63 106.6 C204.29 118.03, 197.98 129.22, 190.7 138.88 C183.41 148.54, 173.61 158.14, 162.94 164.58 C152.27 171.02, 139.35 175.03, 126.68 177.5 C114 179.96, 99.94 181.09, 86.89 179.37 C73.84 177.65, 59.55 173.37, 48.36 167.18 C37.17 160.99, 27.53 151.62, 19.75 142.21 C11.97 132.79, 4.79 122.01, 1.69 110.7 C-1.4 99.4, -1.23 85.72, 1.16 74.35 C3.54 62.99, 8.87 52.17, 16.02 42.51 C23.17 32.85, 32.99 23.33, 44.08 16.39 C55.17 9.46, 75.71 3.15, 82.54 0.91 C89.36 -1.34, 84.42 1.2, 85.01 2.92 M150.61 8.6 C162.19 12.26, 171.85 22.93, 180.24 31.68 C188.64 40.43, 196.59 50.62, 201 61.11 C205.4 71.59, 207.15 83.17, 206.69 94.58 C206.23 105.99, 203.81 119.23, 198.25 129.55 C192.69 139.87, 183.61 148.71, 173.34 156.49 C163.06 164.27, 149.22 172.13, 136.6 176.22 C123.99 180.32, 110.46 181.81, 97.63 181.06 C84.8 180.3, 71.57 176.9, 59.62 171.7 C47.67 166.5, 34.75 158.55, 25.95 149.86 C17.14 141.17, 11.3 130.35, 6.78 119.57 C2.25 108.78, -1.78 96.4, -1.2 85.15 C-0.62 73.9, 4.17 62.66, 10.26 52.06 C16.34 41.45, 25.22 29.15, 35.31 21.52 C45.4 13.89, 58.47 9.63, 70.79 6.28 C83.11 2.94, 96 0.91, 109.24 1.46 C122.49 2.01, 143.69 8.1, 150.27 9.59 C156.85 11.08, 149.78 9.14, 148.7 10.42" stroke="none" stroke-width="0" fill="#a5d8ff"></path><path d="M70.54 4.08 C81.79 -0.95, 96.89 -1.3, 110.11 -0.43 C123.34 0.45, 137.95 4.03, 149.89 9.32 C161.83 14.62, 173.08 22.73, 181.75 31.34 C190.42 39.95, 197.76 50.13, 201.92 60.98 C206.08 71.82, 207.36 84.84, 206.71 96.41 C206.05 107.98, 203.72 120.12, 198 130.38 C192.28 140.65, 182.4 150.31, 172.36 157.99 C162.33 165.67, 150.5 172.66, 137.8 176.47 C125.1 180.29, 109.57 181.71, 96.18 180.87 C82.78 180.02, 69.19 176.45, 57.43 171.41 C45.66 166.37, 34.34 159.18, 25.59 150.65 C16.84 142.11, 9.16 131.43, 4.93 120.21 C0.69 109, -0.85 94.85, 0.16 83.34 C1.18 71.84, 5.2 61.24, 11.03 51.17 C16.85 41.09, 23.91 31.05, 35.12 22.88 C46.34 14.71, 69.98 5.33, 78.33 2.13 C86.68 -1.07, 84.99 1.97, 85.23 3.69 M89.05 -0.28 C101.26 -3.43, 115.37 -1.19, 128.34 2.01 C141.3 5.21, 156.12 12.04, 166.83 18.91 C177.55 25.77, 186.09 33.28, 192.65 43.2 C199.2 53.12, 204.23 66.63, 206.14 78.43 C208.04 90.23, 207.2 102.83, 204.08 113.99 C200.97 125.16, 195.32 136.47, 187.46 145.41 C179.6 154.35, 168.18 161.82, 156.91 167.64 C145.64 173.46, 132.79 178.63, 119.84 180.33 C106.88 182.04, 92.48 180.73, 79.19 177.85 C65.9 174.96, 51.06 169.89, 40.09 163.04 C29.12 156.18, 19.85 146.92, 13.39 136.71 C6.93 126.49, 2.82 113.36, 1.32 101.76 C-0.18 90.16, 1.35 78, 4.39 67.09 C7.42 56.18, 11.8 45.59, 19.51 36.31 C27.22 27.03, 38.95 17.53, 50.63 11.41 C62.31 5.29, 83 1.16, 89.58 -0.41 C96.15 -1.98, 90.09 0.19, 90.09 2.01" stroke="#1971c2" stroke-width="2" fill="none"></path></g><g transform="translate(1063.424650837485 331.750231025341) rotate(0 50.329986572265625 35)"><text x="50.329986572265625" y="0" font-family="Virgil, Segoe UI Emoji" font-size="28px" fill="#1971c2" text-anchor="middle" style="white-space: pre;" direction="ltr" dominant-baseline="text-before-edge">1 Tesla</text><text x="50.329986572265625" y="35" font-family="Virgil, Segoe UI Emoji" font-size="28px" fill="#1971c2" text-anchor="middle" style="white-space: pre;" direction="ltr" dominant-baseline="text-before-edge">ERC20</text></g><g transform="translate(1334.0949439143321 327.04902655914634) rotate(0 40.271575927734375 40.796096567471295)"><text x="0" y="0" font-family="Virgil, Segoe UI Emoji" font-size="65.27375450795417px" fill="#1971c2" text-anchor="start" style="white-space: pre;" direction="ltr" dominant-baseline="text-before-edge">==</text></g><g stroke-linecap="round" transform="translate(1531.1126807014753 274.52974233348846) rotate(0 103.91202054666104 90.29493644782713)"><path d="M75.69 3.81 C87.43 -0.44, 103.59 0.08, 116.84 1.3 C130.09 2.53, 143.68 5.62, 155.22 11.17 C166.76 16.72, 177.93 25.42, 186.08 34.61 C194.23 43.79, 200.6 55.08, 204.1 66.3 C207.59 77.51, 208.52 90.32, 207.05 101.91 C205.58 113.5, 201.66 125.98, 195.27 135.83 C188.88 145.68, 179.31 154.19, 168.69 160.99 C158.07 167.79, 144.53 173.48, 131.55 176.64 C118.57 179.8, 104.02 181.16, 90.81 179.95 C77.59 178.75, 63.63 175.09, 52.27 169.41 C40.91 163.72, 30.74 154.87, 22.65 145.84 C14.56 136.8, 7.4 126.33, 3.71 115.18 C0.03 104.02, -1.19 90.39, 0.54 78.93 C2.27 67.47, 7.49 56.42, 14.1 46.44 C20.7 36.46, 28.28 26.7, 40.19 19.07 C52.1 11.44, 76.43 3.47, 85.56 0.67 C94.69 -2.13, 94.68 0.69, 94.96 2.27 M91.6 -0.6 C103.8 -3.55, 117.48 -1.15, 130.18 2.11 C142.88 5.38, 157.2 11.97, 167.79 18.98 C178.37 26, 187.23 34.34, 193.68 44.2 C200.14 54.05, 204.72 66.42, 206.52 78.11 C208.31 89.81, 207.71 103.19, 204.45 114.37 C201.19 125.54, 194.99 135.96, 186.95 145.16 C178.92 154.36, 167.67 163.63, 156.24 169.56 C144.81 175.5, 131.4 179.51, 118.36 180.77 C105.32 182.03, 91.21 180.43, 77.98 177.1 C64.75 173.77, 49.64 167.57, 38.99 160.79 C28.34 154.01, 20.35 146.05, 14.08 136.42 C7.81 126.8, 3.17 114.6, 1.39 103.05 C-0.4 91.5, -0.07 78.6, 3.38 67.12 C6.82 55.63, 14.03 43.26, 22.06 34.14 C30.08 25.03, 39.89 17.82, 51.53 12.44 C63.17 7.06, 85.44 3.41, 91.9 1.87 C98.37 0.33, 90.17 1.79, 90.34 3.18" stroke="none" stroke-width="0" fill="#ffec99"></path><path d="M81.21 1.85 C93.05 -2.01, 107.58 -1.16, 120.55 0.72 C133.52 2.61, 147.83 7.06, 159.05 13.16 C170.27 19.27, 180.11 28.05, 187.88 37.36 C195.64 46.67, 202.6 57.76, 205.66 69.02 C208.72 80.28, 208.51 93.31, 206.23 104.9 C203.95 116.49, 198.87 128.67, 191.98 138.56 C185.09 148.44, 175.68 157.56, 164.88 164.2 C154.08 170.84, 140.04 175.81, 127.19 178.39 C114.33 180.98, 100.92 181.77, 87.76 179.7 C74.6 177.64, 59.68 172.04, 48.23 166.01 C36.78 159.98, 26.49 152.61, 19.05 143.54 C11.62 134.46, 6.71 123.01, 3.64 111.57 C0.57 100.13, -1.51 86.48, 0.65 74.89 C2.81 63.31, 9.57 51.61, 16.61 42.05 C23.66 32.48, 30.64 24.44, 42.92 17.51 C55.2 10.58, 81.01 3.16, 90.3 0.45 C99.58 -2.26, 98.6 -0.34, 98.63 1.25 M139.32 6.05 C151.74 8.27, 164.46 14.77, 174.08 22.16 C183.69 29.55, 191.54 39.79, 197.03 50.38 C202.53 60.98, 206.37 73.95, 207.04 85.74 C207.7 97.53, 205.23 110.48, 201.01 121.15 C196.78 131.82, 190.19 141.58, 181.7 149.75 C173.21 157.92, 162.14 165.16, 150.07 170.17 C138 175.18, 122.88 178.7, 109.28 179.78 C95.68 180.86, 80.97 180.24, 68.49 176.66 C56 173.07, 43.83 166.23, 34.39 158.28 C24.96 150.33, 17.33 139.52, 11.85 128.95 C6.37 118.38, 2.36 106.02, 1.52 94.85 C0.68 83.67, 2.71 72.63, 6.83 61.91 C10.94 51.18, 17.72 39.46, 26.21 30.51 C34.7 21.55, 45.76 13.03, 57.75 8.18 C69.74 3.32, 84.62 1.99, 98.16 1.37 C111.7 0.76, 132.62 3.72, 139.01 4.51 C145.41 5.3, 137.12 4.76, 136.51 6.12" stroke="#f08c00" stroke-width="2" fill="none"></path></g><g transform="translate(1584.717820300531 329.9765169122486) rotate(0 50.32998657226568 35)"><text x="50.329986572265625" y="0" font-family="Virgil, Segoe UI Emoji" font-size="28px" fill="#f08c00" text-anchor="middle" style="white-space: pre;" direction="ltr" dominant-baseline="text-before-edge">1 Tesla</text><text x="50.329986572265625" y="35" font-family="Virgil, Segoe UI Emoji" font-size="28px" fill="#f08c00" text-anchor="middle" style="white-space: pre;" direction="ltr" dominant-baseline="text-before-edge">Stock</text></g><g stroke-linecap="round"><g transform="translate(1372.186101712234 604.8862244727686) rotate(0 -0.25643133064841095 555.4884797676771)"><path d="M-0.9 -1.2 C-0.92 183.85, 0.4 925.82, 0.51 1111.24 M0.82 0.79 C0.69 185.36, 0.38 924.53, 0.11 1109.26" stroke="#1971c2" stroke-width="2" fill="none"></path></g></g><mask></mask><g stroke-linecap="round" transform="translate(152.38962500742866 767.7898880839191) rotate(0 103.91202054666098 90.29493644782701)"><path d="M91.6 0.53 C103.85 -2.1, 118.42 0.21, 131.16 3.47 C143.9 6.72, 157.39 13.07, 168.02 20.06 C178.64 27.04, 188.52 35.54, 194.91 45.38 C201.3 55.21, 204.79 67.46, 206.34 79.05 C207.88 90.64, 207.74 103.63, 204.19 114.92 C200.63 126.21, 193.22 137.9, 185.01 146.79 C176.81 155.67, 166.41 162.64, 154.98 168.24 C143.55 173.83, 129.56 178.85, 116.42 180.36 C103.27 181.87, 88.95 180.44, 76.12 177.29 C63.29 174.15, 50.07 168.6, 39.45 161.48 C28.83 154.36, 19.02 144.81, 12.41 134.58 C5.8 124.36, 1.26 111.58, -0.22 100.14 C-1.69 88.69, -0.08 76.91, 3.55 65.92 C7.18 54.93, 13.38 43.2, 21.56 34.18 C29.75 25.17, 37.6 17.48, 52.65 11.82 C67.71 6.17, 99.1 1.32, 111.91 0.26 C124.72 -0.8, 129.6 4.01, 129.52 5.47 M127.11 3.56 C139.77 5.02, 154.47 11.05, 165.05 17.47 C175.62 23.9, 183.87 32.22, 190.56 42.11 C197.26 51.99, 202.99 65.53, 205.23 76.79 C207.47 88.04, 206.7 98.45, 203.99 109.63 C201.28 120.81, 196.48 134.28, 188.99 143.85 C181.5 153.42, 170.58 160.94, 159.04 167.04 C147.51 173.13, 132.72 178.77, 119.77 180.42 C106.83 182.07, 93.96 179.68, 81.39 176.94 C68.81 174.2, 55.42 170.5, 44.33 164 C33.23 157.51, 21.79 147.59, 14.82 137.99 C7.85 128.39, 4.43 117.61, 2.52 106.4 C0.62 95.2, 0.67 82.44, 3.38 70.77 C6.09 59.11, 11.33 46.02, 18.79 36.4 C26.24 26.78, 36.65 19, 48.12 13.04 C59.59 7.09, 74.54 2.44, 87.62 0.66 C100.7 -1.12, 119.98 1.81, 126.59 2.35 C133.21 2.89, 127.82 2.54, 127.32 3.88" stroke="none" stroke-width="0" fill="#b2f2bb"></path><path d="M120.62 1.85 C133.28 2.03, 146.78 7.22, 158.12 13.14 C169.47 19.06, 180.84 27.86, 188.7 37.37 C196.56 46.87, 202.22 59.03, 205.27 70.16 C208.32 81.3, 209.09 92.74, 206.98 104.17 C204.87 115.61, 199.5 128.83, 192.6 138.79 C185.7 148.75, 176.23 157.43, 165.57 163.94 C154.91 170.46, 141.86 175.41, 128.65 177.89 C115.43 180.37, 99.6 180.77, 86.28 178.81 C72.97 176.85, 59.77 172, 48.77 166.13 C37.77 160.25, 27.91 152.61, 20.28 143.56 C12.65 134.51, 6.14 123.24, 3.01 111.82 C-0.13 100.4, -0.55 86.51, 1.48 75.06 C3.5 63.61, 8.16 52.68, 15.14 43.14 C22.12 33.59, 32.43 24.5, 43.37 17.78 C54.3 11.07, 65.27 5.16, 80.75 2.86 C96.22 0.56, 124.86 2.67, 136.2 3.98 C147.55 5.3, 149.4 9.3, 148.81 10.76 M138.2 4.92 C151.09 7.22, 163.77 14.73, 173.55 22.4 C183.33 30.07, 191.32 40.46, 196.88 50.95 C202.45 61.43, 206.09 74.1, 206.94 85.31 C207.78 96.53, 206.21 107.68, 201.94 118.26 C197.68 128.84, 189.98 139.75, 181.37 148.8 C172.75 157.85, 161.94 167.2, 150.27 172.55 C138.61 177.91, 124.46 180.5, 111.38 180.93 C98.3 181.36, 84.59 178.81, 71.81 175.13 C59.02 171.45, 44.7 166.26, 34.67 158.87 C24.64 151.48, 17.48 141.01, 11.64 130.77 C5.8 120.53, 0.61 108.85, -0.37 97.45 C-1.35 86.05, 1.61 73.69, 5.75 62.38 C9.9 51.07, 15.89 38.27, 24.51 29.61 C33.14 20.95, 45.36 15.34, 57.48 10.43 C69.6 5.53, 84.21 1.39, 97.23 0.2 C110.25 -0.99, 129.1 2.22, 135.6 3.29 C142.09 4.37, 136.33 4.79, 136.21 6.67" stroke="#2f9e44" stroke-width="2" fill="none"></path></g><g transform="translate(217.12476185990215 840.7366626626792) rotate(0 39.199989318847656 17.5)"><text x="39.199989318847656" y="0" font-family="Virgil, Segoe UI Emoji" font-size="28px" fill="#2f9e44" text-anchor="middle" style="white-space: pre;" direction="ltr" dominant-baseline="text-before-edge">1 ETH</text></g><g stroke-linecap="round" transform="translate(195.24487879646347 876.0064988051074) rotate(0 103.91202054666098 90.29493644782724)"><path d="M140.63 5.47 C152.94 7.72, 164.92 15.6, 174.4 23.28 C183.89 30.96, 192.11 41.04, 197.53 51.57 C202.95 62.1, 206.19 74.97, 206.92 86.46 C207.65 97.94, 206.49 109.49, 201.91 120.47 C197.33 131.45, 188.61 143.62, 179.45 152.34 C170.29 161.06, 158.72 168.14, 146.95 172.79 C135.18 177.43, 121.88 179.98, 108.85 180.23 C95.82 180.49, 81.3 178.18, 68.78 174.29 C56.26 170.41, 43.52 164.76, 33.73 156.94 C23.94 149.13, 15.71 137.77, 10.03 127.4 C4.35 117.03, 0.22 105.94, -0.36 94.72 C-0.95 83.5, 1.89 71.03, 6.52 60.1 C11.16 49.16, 18.36 37.81, 27.47 29.11 C36.59 20.41, 49.15 12.83, 61.23 7.89 C73.32 2.94, 86.26 -0.53, 99.99 -0.58 C113.72 -0.62, 135.51 5.69, 143.61 7.61 C151.7 9.54, 149.21 9.65, 148.57 10.95 M81.96 1.59 C93.99 -1.71, 109.47 0.61, 122.18 2.63 C134.89 4.66, 147.34 7.89, 158.22 13.74 C169.09 19.58, 179.73 28.09, 187.42 37.7 C195.12 47.3, 201.27 60.2, 204.38 71.37 C207.49 82.54, 208.34 93.6, 206.06 104.73 C203.78 115.85, 197.98 128.31, 190.69 138.12 C183.4 147.93, 173.11 156.76, 162.32 163.59 C151.52 170.42, 138.76 176.58, 125.93 179.1 C113.1 181.61, 98.02 180.82, 85.32 178.67 C72.63 176.52, 60.73 172.32, 49.75 166.2 C38.78 160.07, 27.54 151.35, 19.48 141.95 C11.42 132.55, 4.51 120.93, 1.4 109.8 C-1.7 98.67, -1.7 86.35, 0.87 75.17 C3.44 63.99, 9.75 52.4, 16.8 42.74 C23.85 33.08, 32.66 24.16, 43.17 17.19 C53.67 10.21, 73.26 3.17, 79.83 0.88 C86.4 -1.41, 81.92 1.63, 82.6 3.45" stroke="none" stroke-width="0" fill="#b2f2bb"></path><path d="M151.61 9.86 C163.67 13.63, 174.74 22.54, 183.37 31.12 C192 39.71, 199.45 50.29, 203.39 61.36 C207.33 72.43, 208.23 85.89, 207.01 97.54 C205.79 109.2, 201.9 121.1, 196.07 131.28 C190.24 141.46, 181.93 151.19, 172.04 158.61 C162.16 166.03, 149.29 172.07, 136.76 175.8 C124.22 179.53, 109.99 181.7, 96.84 181 C83.69 180.3, 69.93 176.87, 57.87 171.61 C45.81 166.35, 33.39 158.13, 24.49 149.41 C15.58 140.7, 8.37 130.24, 4.44 119.33 C0.5 108.42, -0.2 95.54, 0.87 83.94 C1.94 72.34, 4.96 60.16, 10.87 49.73 C16.78 39.3, 26.27 29.01, 36.33 21.34 C46.38 13.68, 58.74 7.2, 71.21 3.73 C83.68 0.27, 97.2 -0.56, 111.13 0.56 C125.06 1.67, 147.32 8.06, 154.8 10.43 C162.27 12.8, 156.86 13.42, 156 14.75 M86.66 2.55 C98.74 -0.55, 115.19 -0.69, 127.94 1.75 C140.7 4.2, 152.57 10.49, 163.2 17.23 C173.83 23.98, 184.4 32.41, 191.72 42.21 C199.05 52.01, 204.84 64.52, 207.14 76.04 C209.44 87.55, 208.85 100.28, 205.54 111.28 C202.24 122.27, 195.13 132.87, 187.31 142.01 C179.49 151.14, 169.76 160.02, 158.62 166.1 C147.48 172.17, 133.81 176.29, 120.48 178.47 C107.15 180.65, 91.37 181.73, 78.64 179.17 C65.91 176.62, 54.58 170.22, 44.1 163.12 C33.63 156.03, 22.79 146.56, 15.79 136.61 C8.79 126.67, 4.09 114.75, 2.1 103.47 C0.11 92.19, 1.13 79.94, 3.84 68.93 C6.54 57.92, 10.63 46.71, 18.32 37.42 C26.01 28.13, 38.33 19.24, 49.97 13.19 C61.6 7.14, 81.94 2.95, 88.15 1.11 C94.36 -0.73, 87.24 0.51, 87.22 2.14" stroke="#2f9e44" stroke-width="2" fill="none"></path></g><g transform="translate(259.98001564893696 948.9532733838676) rotate(0 39.199989318847656 17.5)"><text x="39.199989318847656" y="0" font-family="Virgil, Segoe UI Emoji" font-size="28px" fill="#2f9e44" text-anchor="middle" style="white-space: pre;" direction="ltr" dominant-baseline="text-before-edge">1 ETH</text></g><g stroke-linecap="round" transform="translate(271.14246466429665 1007.1911866971489) rotate(0 103.91202054666098 90.29493644782724)"><path d="M79.18 2.58 C91 -1.46, 105.45 -0.72, 118.39 0.88 C131.34 2.48, 145.22 6.15, 156.83 12.17 C168.44 18.2, 179.99 27.65, 188.04 37.02 C196.08 46.39, 202.05 57.36, 205.09 68.41 C208.12 79.46, 208.36 91.98, 206.26 103.3 C204.16 114.63, 199.13 126.62, 192.46 136.36 C185.8 146.11, 176.91 155, 166.26 161.79 C155.61 168.57, 141.44 173.93, 128.56 177.05 C115.68 180.18, 102.08 182.24, 89 180.55 C75.92 178.86, 61.37 172.99, 50.07 166.9 C38.78 160.82, 29.08 153.21, 21.22 144.04 C13.36 134.87, 6.28 123.09, 2.9 111.89 C-0.47 100.69, -1.09 88.16, 0.95 76.86 C2.99 65.56, 8.28 53.95, 15.14 44.08 C22 34.2, 30.31 24.73, 42.12 17.59 C53.93 10.45, 77.34 3.65, 86.01 1.24 C94.67 -1.17, 93.76 1.72, 94.11 3.11 M65.53 5.99 C76.97 0.86, 92.67 0.15, 105.59 0.39 C118.5 0.64, 130.81 2.85, 143.04 7.45 C155.26 12.06, 169.34 19.77, 178.94 28.02 C188.54 36.26, 195.8 46.42, 200.64 56.9 C205.48 67.39, 208.02 79.57, 207.99 90.9 C207.95 102.23, 205.82 114.35, 200.42 124.91 C195.02 135.47, 185.21 146.08, 175.59 154.27 C165.97 162.46, 154.89 169.56, 142.71 174.06 C130.54 178.56, 115.81 181.32, 102.53 181.26 C89.24 181.21, 74.93 178.13, 63 173.72 C51.06 169.31, 40.34 162.79, 30.91 154.79 C21.49 146.78, 11.79 136.55, 6.46 125.67 C1.13 114.79, -1.12 101.25, -1.07 89.48 C-1.03 77.7, 1.44 65.68, 6.73 55.02 C12.02 44.36, 21.17 33.8, 30.66 25.52 C40.15 17.24, 57.82 8.07, 63.67 5.33 C69.52 2.59, 65.07 7.64, 65.78 9.07" stroke="none" stroke-width="0" fill="#b2f2bb"></path><path d="M134.85 3.89 C147.38 5.69, 158.97 13.36, 169.04 20.61 C179.12 27.86, 188.76 37.11, 195.29 47.39 C201.82 57.67, 206.97 70.75, 208.24 82.27 C209.52 93.79, 206.97 105.5, 202.95 116.52 C198.94 127.54, 192.45 139.66, 184.15 148.42 C175.85 157.17, 164.77 163.78, 153.15 169.07 C141.52 174.35, 127.63 178.75, 114.4 180.13 C101.17 181.51, 86.41 180.74, 73.78 177.34 C61.16 173.93, 48.97 167.18, 38.68 159.71 C28.39 152.24, 18.39 142.48, 12.04 132.5 C5.69 122.51, 1.73 111.05, 0.59 99.78 C-0.55 88.5, 1.36 76.07, 5.19 64.84 C9.03 53.61, 15.21 41.41, 23.6 32.39 C31.99 23.37, 43.78 16.12, 55.54 10.73 C67.3 5.35, 80.68 1.25, 94.17 0.08 C107.65 -1.08, 129.04 2.46, 136.45 3.75 C143.86 5.03, 138.96 6.09, 138.61 7.8 M75.26 4.7 C87.06 0.3, 102.25 -1.98, 115.53 -0.86 C128.8 0.27, 143.28 5.53, 154.92 11.45 C166.56 17.37, 177.31 25.75, 185.39 34.66 C193.47 43.57, 199.94 53.94, 203.4 64.91 C206.86 75.88, 207.8 88.79, 206.13 100.46 C204.46 112.12, 199.54 124.56, 193.39 134.91 C187.25 145.26, 179.62 155.43, 169.24 162.55 C158.87 169.66, 144.03 174.79, 131.14 177.57 C118.25 180.36, 104.87 180.89, 91.9 179.28 C78.92 177.66, 65 173.4, 53.29 167.86 C41.58 162.32, 29.61 154.97, 21.64 146.04 C13.67 137.11, 8.87 125.16, 5.45 114.28 C2.03 103.4, 0.03 91.95, 1.14 80.76 C2.26 69.58, 5.95 57.57, 12.16 47.16 C18.36 36.76, 27.91 25.69, 38.37 18.34 C48.82 10.99, 68.39 5.37, 74.87 3.05 C81.35 0.73, 76.74 3.1, 77.26 4.4" stroke="#2f9e44" stroke-width="2" fill="none"></path></g><g transform="translate(335.87760151677014 1080.137961275909) rotate(0 39.199989318847656 17.5)"><text x="39.199989318847656" y="0" font-family="Virgil, Segoe UI Emoji" font-size="28px" fill="#2f9e44" text-anchor="middle" style="white-space: pre;" direction="ltr" dominant-baseline="text-before-edge">1 ETH</text></g><g transform="translate(128.43773634895422 1185.995941046702) rotate(0 206.63990783691406 122.5)"><text x="0" y="0" font-family="Virgil, Segoe UI Emoji" font-size="28px" fill="#1971c2" text-anchor="start" style="white-space: pre;" direction="ltr" dominant-baseline="text-before-edge">Total before deposit &amp; mint: </text><text x="0" y="35" font-family="Virgil, Segoe UI Emoji" font-size="28px" fill="#1971c2" text-anchor="start" style="white-space: pre;" direction="ltr" dominant-baseline="text-before-edge">3 ETH = $6,000</text><text x="0" y="70" font-family="Virgil, Segoe UI Emoji" font-size="28px" fill="#1971c2" text-anchor="start" style="white-space: pre;" direction="ltr" dominant-baseline="text-before-edge">0 TSLA minted</text><text x="0" y="105" font-family="Virgil, Segoe UI Emoji" font-size="28px" fill="#1971c2" text-anchor="start" style="white-space: pre;" direction="ltr" dominant-baseline="text-before-edge"></text><text x="0" y="140" font-family="Virgil, Segoe UI Emoji" font-size="28px" fill="#1971c2" text-anchor="start" style="white-space: pre;" direction="ltr" dominant-baseline="text-before-edge">Total after deposit &amp; mint:</text><text x="0" y="175" font-family="Virgil, Segoe UI Emoji" font-size="28px" fill="#1971c2" text-anchor="start" style="white-space: pre;" direction="ltr" dominant-baseline="text-before-edge">4 ETH = $8,000</text><text x="0" y="210" font-family="Virgil, Segoe UI Emoji" font-size="28px" fill="#1971c2" text-anchor="start" style="white-space: pre;" direction="ltr" dominant-baseline="text-before-edge">    1 TSLA = $200 </text></g><g transform="translate(270.7644588045042 581.0115596604232) rotate(0 53.53302001953125 32.937297180405835)"><text x="0" y="0" font-family="Virgil, Segoe UI Emoji" font-size="52.69967548864937px" fill="#1971c2" text-anchor="start" style="white-space: pre;" direction="ltr" dominant-baseline="text-before-edge">Pool</text></g><g stroke-linecap="round" transform="translate(50.20440332027647 673.137125077639) rotate(0 276.48429288305675 425.89699693156604)"><path d="M552.97 425.9 C552.97 433.09, 552.85 440.29, 552.61 447.47 C552.38 454.65, 552.02 461.83, 551.55 468.98 C551.08 476.14, 550.49 483.28, 549.78 490.39 C549.07 497.5, 548.25 504.59, 547.31 511.63 C546.37 518.67, 545.31 525.69, 544.14 532.65 C542.97 539.61, 541.69 546.53, 540.29 553.39 C538.89 560.26, 537.38 567.07, 535.76 573.81 C534.14 580.56, 532.4 587.24, 530.56 593.85 C528.72 600.46, 526.77 607, 524.71 613.46 C522.66 619.92, 520.49 626.3, 518.23 632.59 C515.96 638.87, 513.59 645.08, 511.12 651.18 C508.65 657.28, 506.08 663.3, 503.41 669.2 C500.75 675.1, 497.98 680.91, 495.12 686.59 C492.26 692.28, 489.31 697.86, 486.27 703.31 C483.23 708.77, 480.09 714.11, 476.88 719.33 C473.66 724.54, 470.36 729.63, 466.97 734.58 C463.59 739.54, 460.12 744.37, 456.58 749.05 C453.04 753.73, 449.41 758.28, 445.72 762.69 C442.03 767.09, 438.26 771.35, 434.43 775.46 C430.6 779.57, 426.7 783.53, 422.73 787.33 C418.77 791.14, 414.74 794.79, 410.66 798.28 C406.58 801.77, 402.44 805.1, 398.25 808.27 C394.06 811.44, 389.81 814.44, 385.52 817.28 C381.23 820.11, 376.89 822.79, 372.51 825.28 C368.13 827.78, 363.71 830.11, 359.25 832.26 C354.8 834.41, 350.3 836.4, 345.79 838.2 C341.27 840, 336.71 841.63, 332.14 843.08 C327.57 844.52, 322.97 845.79, 318.35 846.88 C313.74 847.97, 309.1 848.88, 304.46 849.61 C299.81 850.34, 295.15 850.88, 290.49 851.25 C285.83 851.61, 281.15 851.79, 276.48 851.79 C271.82 851.79, 267.14 851.61, 262.48 851.25 C257.82 850.88, 253.16 850.34, 248.51 849.61 C243.87 848.88, 239.23 847.97, 234.62 846.88 C230 845.79, 225.4 844.52, 220.83 843.08 C216.26 841.63, 211.7 840, 207.18 838.2 C202.66 836.4, 198.17 834.41, 193.72 832.26 C189.26 830.11, 184.84 827.78, 180.46 825.28 C176.08 822.79, 171.74 820.11, 167.45 817.28 C163.16 814.44, 158.91 811.44, 154.72 808.27 C150.53 805.1, 146.39 801.77, 142.31 798.28 C138.22 794.79, 134.2 791.14, 130.23 787.33 C126.27 783.53, 122.37 779.57, 118.54 775.46 C114.71 771.35, 110.94 767.09, 107.25 762.69 C103.56 758.28, 99.93 753.73, 96.39 749.05 C92.85 744.37, 89.38 739.54, 86 734.58 C82.61 729.63, 79.31 724.54, 76.09 719.33 C72.87 714.11, 69.74 708.77, 66.7 703.31 C63.66 697.86, 60.7 692.28, 57.85 686.59 C54.99 680.91, 52.22 675.1, 49.56 669.2 C46.89 663.3, 44.32 657.28, 41.85 651.18 C39.38 645.08, 37.01 638.87, 34.74 632.59 C32.48 626.3, 30.31 619.92, 28.26 613.46 C26.2 607, 24.25 600.46, 22.41 593.85 C20.57 587.24, 18.83 580.56, 17.21 573.81 C15.59 567.07, 14.08 560.26, 12.68 553.39 C11.28 546.53, 10 539.61, 8.83 532.65 C7.66 525.69, 6.6 518.67, 5.66 511.63 C4.72 504.59, 3.9 497.5, 3.19 490.39 C2.48 483.28, 1.89 476.14, 1.42 468.98 C0.95 461.83, 0.59 454.65, 0.35 447.47 C0.12 440.29, 0 433.09, 0 425.9 C0 418.71, 0.12 411.51, 0.35 404.33 C0.59 397.14, 0.95 389.96, 1.42 382.81 C1.89 375.66, 2.48 368.51, 3.19 361.4 C3.9 354.3, 4.72 347.21, 5.66 340.16 C6.6 333.12, 7.66 326.11, 8.83 319.14 C10 312.18, 11.28 305.26, 12.68 298.4 C14.08 291.54, 15.59 284.72, 17.21 277.98 C18.83 271.24, 20.57 264.55, 22.41 257.94 C24.25 251.33, 26.2 244.79, 28.26 238.33 C30.31 231.88, 32.48 225.5, 34.74 219.21 C37.01 212.92, 39.38 206.71, 41.85 200.61 C44.32 194.51, 46.89 188.5, 49.56 182.6 C52.22 176.69, 54.99 170.89, 57.85 165.2 C60.7 159.52, 63.66 153.94, 66.7 148.48 C69.74 143.02, 72.87 137.68, 76.09 132.47 C79.31 127.26, 82.61 122.16, 86 117.21 C89.38 112.26, 92.85 107.43, 96.39 102.74 C99.93 98.06, 103.56 93.51, 107.25 89.11 C110.94 84.71, 114.71 80.44, 118.54 76.34 C122.37 72.23, 126.27 68.27, 130.23 64.46 C134.2 60.66, 138.22 57, 142.31 53.52 C146.39 50.03, 150.53 46.69, 154.72 43.52 C158.91 40.36, 163.16 37.35, 167.45 34.52 C171.74 31.68, 176.08 29.01, 180.46 26.51 C184.84 24.01, 189.26 21.68, 193.72 19.53 C198.17 17.38, 202.66 15.4, 207.18 13.6 C211.7 11.79, 216.26 10.17, 220.83 8.72 C225.4 7.27, 230 6, 234.62 4.91 C239.23 3.82, 243.87 2.91, 248.51 2.19 C253.16 1.46, 257.82 0.91, 262.48 0.55 C267.14 0.18, 271.82 0, 276.48 0 C281.15 0, 285.83 0.18, 290.49 0.55 C295.15 0.91, 299.81 1.46, 304.46 2.19 C309.1 2.91, 313.74 3.82, 318.35 4.91 C322.97 6, 327.57 7.27, 332.14 8.72 C336.71 10.17, 341.27 11.79, 345.79 13.6 C350.3 15.4, 354.8 17.38, 359.25 19.53 C363.71 21.68, 368.13 24.01, 372.51 26.51 C376.89 29.01, 381.23 31.68, 385.52 34.52 C389.81 37.35, 394.06 40.36, 398.25 43.52 C402.44 46.69, 406.58 50.03, 410.66 53.52 C414.74 57, 418.77 60.66, 422.73 64.46 C426.7 68.27, 430.6 72.23, 434.43 76.34 C438.26 80.44, 442.03 84.71, 445.72 89.11 C449.41 93.51, 453.04 98.06, 456.58 102.74 C460.12 107.43, 463.59 112.26, 466.97 117.21 C470.36 122.16, 473.66 127.26, 476.88 132.47 C480.09 137.68, 483.23 143.02, 486.27 148.48 C489.31 153.94, 492.26 159.52, 495.12 165.2 C497.98 170.89, 500.75 176.69, 503.41 182.6 C506.08 188.5, 508.65 194.51, 511.12 200.61 C513.59 206.71, 515.96 212.92, 518.23 219.21 C520.49 225.5, 522.66 231.88, 524.71 238.33 C526.77 244.79, 528.72 251.33, 530.56 257.94 C532.4 264.55, 534.14 271.24, 535.76 277.98 C537.38 284.72, 538.89 291.54, 540.29 298.4 C541.69 305.26, 542.97 312.18, 544.14 319.14 C545.31 326.11, 546.37 333.12, 547.31 340.16 C548.25 347.21, 549.07 354.3, 549.78 361.4 C550.49 368.51, 551.08 375.66, 551.55 382.81 C552.02 389.96, 552.38 397.14, 552.61 404.33 C552.85 411.51, 552.91 422.3, 552.97 425.9 C553.03 429.49, 553.03 422.3, 552.97 425.9" stroke="#1971c2" stroke-width="2" fill="none"></path></g><g stroke-linecap="round" transform="translate(634.1290207962599 657.4331085091046) rotate(0 103.91202054666098 90.29493644782724)"><path d="M99.15 -0.41 C111.66 -2.21, 127.35 1.86, 139.59 5.96 C151.83 10.06, 162.96 16.67, 172.57 24.18 C182.18 31.69, 191.57 40.89, 197.26 51.03 C202.95 61.17, 206.03 73.51, 206.71 85.01 C207.38 96.5, 205.74 108.99, 201.31 120 C196.87 131.01, 189.05 142.36, 180.11 151.07 C171.16 159.78, 159.58 167.38, 147.63 172.25 C135.69 177.12, 121.48 179.64, 108.42 180.27 C95.36 180.9, 81.45 179.77, 69.27 176.02 C57.08 172.27, 45.16 165.44, 35.29 157.77 C25.43 150.11, 15.99 140.63, 10.05 130.03 C4.12 119.43, 0.47 105.72, -0.31 94.16 C-1.08 82.61, 0.99 71.46, 5.41 60.69 C9.83 49.93, 17.11 38.29, 26.21 29.55 C35.32 20.81, 45.99 13.14, 60.06 8.24 C74.13 3.35, 100.53 1.07, 110.63 0.18 C120.73 -0.72, 121.05 1.25, 120.66 2.86 M113.48 0.7 C126.23 0.45, 141.07 5.19, 152.6 10.54 C164.14 15.88, 174.18 24.08, 182.67 32.77 C191.17 41.46, 199.53 51.65, 203.57 62.7 C207.62 73.75, 208.18 87.64, 206.94 99.09 C205.71 110.54, 202.33 121.24, 196.15 131.41 C189.98 141.58, 180.01 152.85, 169.88 160.11 C159.75 167.36, 147.97 171.44, 135.38 174.93 C122.8 178.41, 107.65 181.7, 94.37 181.03 C81.1 180.37, 67.45 176.1, 55.74 170.92 C44.03 165.75, 32.33 159, 24.1 149.99 C15.87 140.97, 10.3 128.12, 6.38 116.82 C2.46 105.53, -0.33 93.53, 0.59 82.2 C1.5 70.88, 5.99 59.03, 11.87 48.87 C17.76 38.7, 25.77 28.85, 35.9 21.21 C46.02 13.56, 59.71 6.33, 72.61 3 C85.52 -0.33, 106.61 1.51, 113.32 1.23 C120.03 0.96, 113.38 -0.01, 112.87 1.37" stroke="none" stroke-width="0" fill="#b2f2bb"></path><path d="M144.75 7.95 C157.02 10.94, 169.79 18.38, 179.15 26.48 C188.5 34.57, 196.25 45.55, 200.86 56.52 C205.47 67.48, 207.23 80.62, 206.82 92.28 C206.42 103.94, 203.46 116.18, 198.44 126.49 C193.43 136.81, 185.95 146.18, 176.74 154.17 C167.53 162.16, 155.61 170.11, 143.17 174.45 C130.73 178.8, 115.46 180.38, 102.09 180.25 C88.73 180.13, 74.91 178.2, 62.98 173.71 C51.04 169.22, 39.89 161.81, 30.48 153.33 C21.07 144.85, 11.51 133.44, 6.52 122.83 C1.53 112.22, 0.29 100.92, 0.52 89.67 C0.75 78.43, 2.83 66.03, 7.88 55.37 C12.93 44.71, 21.21 33.78, 30.81 25.69 C40.42 17.61, 53.04 11.16, 65.53 6.86 C78.03 2.56, 91.82 -0.47, 105.79 -0.12 C119.76 0.24, 141.44 6.86, 149.37 8.98 C157.3 11.11, 154.03 11.12, 153.37 12.65 M112.17 -0.02 C124.73 -0.35, 138.51 5.12, 150.47 10.37 C162.43 15.63, 175.31 23.01, 183.94 31.52 C192.56 40.03, 198.25 50.25, 202.21 61.44 C206.18 72.63, 208.66 86.83, 207.71 98.64 C206.77 110.45, 202.47 122.14, 196.55 132.29 C190.63 142.45, 182 152.3, 172.17 159.58 C162.33 166.85, 150.22 172.49, 137.57 175.94 C124.92 179.38, 109.87 181.12, 96.25 180.24 C82.64 179.36, 67.61 175.82, 55.88 170.66 C44.15 165.51, 34.19 158.18, 25.85 149.31 C17.52 140.45, 10.4 128.59, 5.9 117.48 C1.39 106.37, -2.12 93.85, -1.17 82.65 C-0.22 71.44, 5.45 60.46, 11.6 50.26 C17.74 40.06, 25.47 28.88, 35.67 21.46 C45.88 14.03, 59.9 9.17, 72.81 5.73 C85.71 2.28, 106.38 1.59, 113.1 0.81 C119.82 0.03, 113.54 -0.35, 113.14 1.04" stroke="#2f9e44" stroke-width="2" fill="none"></path></g><g transform="translate(698.8641576487333 730.3798830878648) rotate(0 39.199989318847656 17.5)"><text x="39.199989318847656" y="0" font-family="Virgil, Segoe UI Emoji" font-size="28px" fill="#2f9e44" text-anchor="middle" style="white-space: pre;" direction="ltr" dominant-baseline="text-before-edge">1 ETH</text></g><g stroke-linecap="round" transform="translate(367.64281125442517 1535.0635143903567) rotate(0 120.45943105143579 93.2940019665682)"><path d="M32 0 C90.57 0, 149.13 0, 208.92 0 C230.25 0, 240.92 10.67, 240.92 32 C240.92 72.66, 240.92 113.31, 240.92 154.59 C240.92 175.92, 230.25 186.59, 208.92 186.59 C142.97 186.59, 77.02 186.59, 32 186.59 C10.67 186.59, 0 175.92, 0 154.59 C0 127.58, 0 100.58, 0 32 C0 10.67, 10.67 0, 32 0" stroke="none" stroke-width="0" fill="#a5d8ff"></path><path d="M32 0 C75.68 0, 119.37 0, 208.92 0 M32 0 C90.99 0, 149.97 0, 208.92 0 M208.92 0 C230.25 0, 240.92 10.67, 240.92 32 M208.92 0 C230.25 0, 240.92 10.67, 240.92 32 M240.92 32 C240.92 56.61, 240.92 81.23, 240.92 154.59 M240.92 32 C240.92 77.66, 240.92 123.33, 240.92 154.59 M240.92 154.59 C240.92 175.92, 230.25 186.59, 208.92 186.59 M240.92 154.59 C240.92 175.92, 230.25 186.59, 208.92 186.59 M208.92 186.59 C149.9 186.59, 90.88 186.59, 32 186.59 M208.92 186.59 C161.67 186.59, 114.42 186.59, 32 186.59 M32 186.59 C10.67 186.59, 0 175.92, 0 154.59 M32 186.59 C10.67 186.59, 0 175.92, 0 154.59 M0 154.59 C0 120.74, 0 86.89, 0 32 M0 154.59 C0 115.46, 0 76.34, 0 32 M0 32 C0 10.67, 10.67 0, 32 0 M0 32 C0 10.67, 10.67 0, 32 0" stroke="#1971c2" stroke-width="2" fill="none"></path></g><g transform="translate(422.58229143916174 1593.3575163569246) rotate(0 65.51995086669922 35)"><text x="65.51995086669922" y="0" font-family="Virgil, Segoe UI Emoji" font-size="28px" fill="#1971c2" text-anchor="middle" style="white-space: pre;" direction="ltr" dominant-baseline="text-before-edge">Oracle</text><text x="65.51995086669922" y="35" font-family="Virgil, Segoe UI Emoji" font-size="28px" fill="#1971c2" text-anchor="middle" style="white-space: pre;" direction="ltr" dominant-baseline="text-before-edge">(Chainlink)</text></g><g mask="url(#mask-oN25Sa0DTA4nFQ44ozW5f)" stroke-linecap="round"><g transform="translate(607.4931496698462 1525.2710212563927) rotate(0 41.95171683304491 -236.3100107839864)"><path d="M0 0 C13.98 -31.1, 82.32 -107.81, 83.9 -186.58 C85.49 -265.35, 21.92 -424.95, 9.52 -472.62 M0 0 C13.98 -31.1, 82.32 -107.81, 83.9 -186.58 C85.49 -265.35, 21.92 -424.95, 9.52 -472.62" stroke="#1971c2" stroke-width="2" fill="none"></path></g><g transform="translate(607.4931496698462 1525.2710212563927) rotate(0 41.95171683304491 -236.3100107839864)"><path d="M24.85 -452.87 C20.75 -458.15, 16.65 -463.43, 9.52 -472.62 M24.85 -452.87 C19.15 -460.22, 13.45 -467.56, 9.52 -472.62" stroke="#1971c2" stroke-width="2" fill="none"></path></g><g transform="translate(607.4931496698462 1525.2710212563927) rotate(0 41.95171683304491 -236.3100107839864)"><path d="M8.57 -447.64 C8.82 -454.32, 9.08 -461, 9.52 -472.62 M8.57 -447.64 C8.92 -456.93, 9.28 -466.22, 9.52 -472.62" stroke="#1971c2" stroke-width="2" fill="none"></path></g></g><mask id="mask-oN25Sa0DTA4nFQ44ozW5f"><rect x="0" y="0" fill="#fff" width="791.3965833359359" height="2097.8910428243653"></rect><rect x="580.1526258164047" y="1303.686407958322" fill="#000" width="222.4879150390625" height="70" opacity="1"></rect></mask><g transform="translate(580.1526258164047 1303.686407958322) rotate(0 69.30683914547973 -14.725397485915437)"><text x="111.24395751953125" y="0" font-family="Virgil, Segoe UI Emoji" font-size="28px" fill="#1971c2" text-anchor="middle" style="white-space: pre;" direction="ltr" dominant-baseline="text-before-edge">1 ETH == $2k</text><text x="111.24395751953125" y="35" font-family="Virgil, Segoe UI Emoji" font-size="28px" fill="#1971c2" text-anchor="middle" style="white-space: pre;" direction="ltr" dominant-baseline="text-before-edge">1 TSLA = $200</text></g><g stroke-linecap="round"><g transform="translate(644.9898088470743 776.995667782687) rotate(0 -91.5049757569592 43.74080290238362)"><path d="M0 0 C-30.5 14.58, -152.51 72.9, -183.01 87.48 M0 0 C-30.5 14.58, -152.51 72.9, -183.01 87.48" stroke="#f08c00" stroke-width="2" fill="none"></path></g><g transform="translate(644.9898088470743 776.995667782687) rotate(0 -91.5049757569592 43.74080290238362)"><path d="M-165.5 69.64 C-172.46 76.73, -179.42 83.83, -183.01 87.48 M-165.5 69.64 C-171.53 75.78, -177.56 81.92, -183.01 87.48" stroke="#f08c00" stroke-width="2" fill="none"></path></g><g transform="translate(644.9898088470743 776.995667782687) rotate(0 -91.5049757569592 43.74080290238362)"><path d="M-158.13 85.06 C-168.02 86.03, -177.91 86.99, -183.01 87.48 M-158.13 85.06 C-166.69 85.9, -175.26 86.73, -183.01 87.48" stroke="#f08c00" stroke-width="2" fill="none"></path></g></g><mask></mask><g stroke-linecap="round"><g transform="translate(505.9464765309315 951.1539426275651) rotate(0 107.60447394296955 14.92006577832035)"><path d="M0 0 C35.87 4.97, 179.34 24.87, 215.21 29.84 M0 0 C35.87 4.97, 179.34 24.87, 215.21 29.84" stroke="#f08c00" stroke-width="4" fill="none"></path></g><g transform="translate(505.9464765309315 951.1539426275651) rotate(0 107.60447394296955 14.92006577832035)"><path d="M190.76 35.08 C200.4 33.02, 210.04 30.95, 215.21 29.84 M190.76 35.08 C197.7 33.59, 204.64 32.11, 215.21 29.84" stroke="#f08c00" stroke-width="4" fill="none"></path></g><g transform="translate(505.9464765309315 951.1539426275651) rotate(0 107.60447394296955 14.92006577832035)"><path d="M193.11 18.14 C201.82 22.76, 210.54 27.37, 215.21 29.84 M193.11 18.14 C199.39 21.46, 205.66 24.79, 215.21 29.84" stroke="#f08c00" stroke-width="4" fill="none"></path></g></g><mask></mask><g stroke-linecap="round" transform="translate(711.5390842011353 866.534590216628) rotate(0 103.91202054666098 90.29493644782701)"><path d="M98.35 0.55 C110.81 -1.57, 126.3 1.14, 138.72 4.77 C151.15 8.39, 163.16 14.46, 172.92 22.3 C182.68 30.13, 191.44 41.22, 197.29 51.75 C203.14 62.28, 207.12 74.24, 208.02 85.47 C208.93 96.7, 207.12 108.45, 202.7 119.15 C198.28 129.85, 190.6 141.05, 181.51 149.66 C172.42 158.28, 160.01 165.58, 148.15 170.84 C136.28 176.1, 123.35 180.44, 110.32 181.21 C97.29 181.97, 82.46 179.38, 69.99 175.44 C57.52 171.5, 45.56 165.17, 35.49 157.59 C25.42 150.01, 15.55 140.27, 9.56 129.96 C3.57 119.65, 0.17 107.17, -0.43 95.71 C-1.04 84.25, 1.38 72.11, 5.92 61.18 C10.47 50.24, 17.92 38.66, 26.85 30.1 C35.79 21.54, 47.18 14.93, 59.53 9.81 C71.88 4.7, 93.32 0.78, 100.95 -0.59 C108.58 -1.96, 105.24 0.06, 105.31 1.62 M111.07 0.22 C123.47 -0.1, 137.59 5.48, 149.29 10.54 C160.98 15.6, 172.21 22.26, 181.25 30.6 C190.28 38.94, 199.15 49.82, 203.49 60.56 C207.83 71.29, 208.1 83.24, 207.28 95.01 C206.46 106.79, 204.34 120.49, 198.58 131.22 C192.81 141.95, 183.03 151.76, 172.68 159.39 C162.33 167.01, 149.02 173.23, 136.46 176.98 C123.9 180.72, 110.41 182.82, 97.3 181.85 C84.19 180.89, 69.8 176.65, 57.8 171.18 C45.8 165.72, 33.85 157.79, 25.31 149.05 C16.77 140.31, 10.87 129.63, 6.55 118.75 C2.22 107.87, -1.5 94.96, -0.64 83.78 C0.22 72.6, 5.59 61.86, 11.71 51.66 C17.83 41.46, 26.5 30.34, 36.1 22.59 C45.7 14.85, 56.75 9.06, 69.29 5.18 C81.83 1.3, 104.45 -0.16, 111.36 -0.7 C118.26 -1.24, 111.1 0.42, 110.72 1.92" stroke="none" stroke-width="0" fill="#a5d8ff"></path><path d="M120.6 0.83 C133.41 1.31, 147.45 7.76, 158.77 13.95 C170.1 20.14, 180.86 28.67, 188.55 37.97 C196.25 47.27, 201.84 58.71, 204.93 69.74 C208.02 80.78, 209.28 92.8, 207.08 104.18 C204.88 115.55, 198.88 128.1, 191.74 138 C184.6 147.9, 175 156.79, 164.24 163.56 C153.48 170.32, 140.09 175.88, 127.18 178.59 C114.27 181.31, 99.81 181.88, 86.78 179.83 C73.75 177.78, 60.19 172.55, 49 166.31 C37.82 160.08, 27.41 151.71, 19.66 142.42 C11.9 133.14, 5.51 121.72, 2.48 110.62 C-0.56 99.52, -0.71 87.31, 1.46 75.83 C3.63 64.36, 8.52 51.56, 15.49 41.76 C22.45 31.97, 32.4 23.76, 43.26 17.05 C54.13 10.33, 66.33 3.98, 80.69 1.49 C95.04 -1, 120.01 1.23, 129.41 2.12 C138.8 3.01, 137.27 5.26, 137.05 6.83 M81.75 2.89 C93.6 -0.91, 109.82 -0.6, 122.8 1.51 C135.77 3.61, 148.46 9.1, 159.6 15.54 C170.75 21.97, 182.14 30.97, 189.66 40.12 C197.18 49.27, 202.17 59.32, 204.71 70.45 C207.25 81.57, 207.07 95.42, 204.89 106.88 C202.71 118.33, 198.59 129.68, 191.64 139.16 C184.68 148.64, 174.33 156.93, 163.15 163.76 C151.98 170.59, 137.47 177.79, 124.59 180.12 C111.71 182.45, 98.75 180.27, 85.89 177.75 C73.02 175.22, 58.63 171.18, 47.38 165 C36.13 158.81, 25.82 149.8, 18.4 140.64 C10.98 131.47, 5.41 121.12, 2.87 110 C0.33 98.89, 0.6 85.35, 3.15 73.94 C5.7 62.54, 11.21 51.23, 18.17 41.56 C25.12 31.89, 34.05 22.71, 44.89 15.9 C55.73 9.08, 76.87 2.77, 83.21 0.68 C89.56 -1.41, 82.53 1.85, 82.97 3.35" stroke="#1971c2" stroke-width="2" fill="none"></path></g><g transform="translate(765.1442238001908 921.9813647953881) rotate(0 50.329986572265625 35)"><text x="50.329986572265625" y="0" font-family="Virgil, Segoe UI Emoji" font-size="28px" fill="#1971c2" text-anchor="middle" style="white-space: pre;" direction="ltr" dominant-baseline="text-before-edge">1 Tesla</text><text x="50.329986572265625" y="35" font-family="Virgil, Segoe UI Emoji" font-size="28px" fill="#1971c2" text-anchor="middle" style="white-space: pre;" direction="ltr" dominant-baseline="text-before-edge">ERC20</text></g><g transform="translate(825.404822579146 1119.698851589014) rotate(0 263.82989501953125 297.5)"><text x="0" y="0" font-family="Virgil, Segoe UI Emoji" font-size="28px" fill="#2f9e44" text-anchor="start" style="white-space: pre;" direction="ltr" dominant-baseline="text-before-edge">The key to tokenized assets</text><text x="0" y="35" font-family="Virgil, Segoe UI Emoji" font-size="28px" fill="#2f9e44" text-anchor="start" style="white-space: pre;" direction="ltr" dominant-baseline="text-before-edge">is that an oracle gives the </text><text x="0" y="70" font-family="Virgil, Segoe UI Emoji" font-size="28px" fill="#2f9e44" text-anchor="start" style="white-space: pre;" direction="ltr" dominant-baseline="text-before-edge">users the exchange rate of</text><text x="0" y="105" font-family="Virgil, Segoe UI Emoji" font-size="28px" fill="#2f9e44" text-anchor="start" style="white-space: pre;" direction="ltr" dominant-baseline="text-before-edge">depositing collateral and minting</text><text x="0" y="140" font-family="Virgil, Segoe UI Emoji" font-size="28px" fill="#2f9e44" text-anchor="start" style="white-space: pre;" direction="ltr" dominant-baseline="text-before-edge">the synthetic asset based on </text><text x="0" y="175" font-family="Virgil, Segoe UI Emoji" font-size="28px" fill="#2f9e44" text-anchor="start" style="white-space: pre;" direction="ltr" dominant-baseline="text-before-edge">the real world price of the</text><text x="0" y="210" font-family="Virgil, Segoe UI Emoji" font-size="28px" fill="#2f9e44" text-anchor="start" style="white-space: pre;" direction="ltr" dominant-baseline="text-before-edge">collateral and asset.</text><text x="0" y="245" font-family="Virgil, Segoe UI Emoji" font-size="28px" fill="#2f9e44" text-anchor="start" style="white-space: pre;" direction="ltr" dominant-baseline="text-before-edge"></text><text x="0" y="280" font-family="Virgil, Segoe UI Emoji" font-size="28px" fill="#2f9e44" text-anchor="start" style="white-space: pre;" direction="ltr" dominant-baseline="text-before-edge"></text><text x="0" y="315" font-family="Virgil, Segoe UI Emoji" font-size="28px" fill="#2f9e44" text-anchor="start" style="white-space: pre;" direction="ltr" dominant-baseline="text-before-edge">It's "synthetic" because technically</text><text x="0" y="350" font-family="Virgil, Segoe UI Emoji" font-size="28px" fill="#2f9e44" text-anchor="start" style="white-space: pre;" direction="ltr" dominant-baseline="text-before-edge">your TESLA token is not backed by</text><text x="0" y="385" font-family="Virgil, Segoe UI Emoji" font-size="28px" fill="#2f9e44" text-anchor="start" style="white-space: pre;" direction="ltr" dominant-baseline="text-before-edge">a share of TESLA stock, but backed</text><text x="0" y="420" font-family="Virgil, Segoe UI Emoji" font-size="28px" fill="#2f9e44" text-anchor="start" style="white-space: pre;" direction="ltr" dominant-baseline="text-before-edge">by some other collateral that is used</text><text x="0" y="455" font-family="Virgil, Segoe UI Emoji" font-size="28px" fill="#2f9e44" text-anchor="start" style="white-space: pre;" direction="ltr" dominant-baseline="text-before-edge">to secure your token.</text><text x="0" y="490" font-family="Virgil, Segoe UI Emoji" font-size="28px" fill="#2f9e44" text-anchor="start" style="white-space: pre;" direction="ltr" dominant-baseline="text-before-edge"></text><text x="0" y="525" font-family="Virgil, Segoe UI Emoji" font-size="28px" fill="#2f9e44" text-anchor="start" style="white-space: pre;" direction="ltr" dominant-baseline="text-before-edge">In a way, minting this asset</text><text x="0" y="560" font-family="Virgil, Segoe UI Emoji" font-size="28px" fill="#2f9e44" text-anchor="start" style="white-space: pre;" direction="ltr" dominant-baseline="text-before-edge">could be considered a loan. </text></g><g stroke-linecap="round" transform="translate(902.8345896562737 660.2723749388567) rotate(0 82.80354660427895 94.14742481266717)"><path d="M165.61 94.15 C165.61 97.22, 165.47 100.31, 165.21 103.38 C164.94 106.44, 164.54 109.5, 164.02 112.51 C163.49 115.53, 162.83 118.53, 162.04 121.48 C161.26 124.42, 160.34 127.33, 159.3 130.18 C158.27 133.02, 157.11 135.82, 155.83 138.53 C154.55 141.24, 153.16 143.9, 151.65 146.45 C150.15 149.01, 148.53 151.5, 146.81 153.87 C145.1 156.25, 143.27 158.54, 141.35 160.72 C139.44 162.89, 137.42 164.97, 135.33 166.92 C133.24 168.88, 131.06 170.72, 128.81 172.43 C126.56 174.14, 124.22 175.73, 121.84 177.18 C119.45 178.63, 116.99 179.95, 114.49 181.13 C111.99 182.31, 109.43 183.35, 106.84 184.24 C104.25 185.13, 101.61 185.89, 98.96 186.49 C96.3 187.09, 93.61 187.54, 90.92 187.84 C88.23 188.14, 85.51 188.29, 82.8 188.29 C80.1 188.29, 77.38 188.14, 74.69 187.84 C72 187.54, 69.3 187.09, 66.65 186.49 C64 185.89, 61.36 185.13, 58.77 184.24 C56.18 183.35, 53.62 182.31, 51.12 181.13 C48.62 179.95, 46.16 178.63, 43.77 177.18 C41.38 175.73, 39.05 174.14, 36.8 172.43 C34.55 170.72, 32.36 168.88, 30.27 166.92 C28.18 164.97, 26.17 162.89, 24.25 160.72 C22.34 158.54, 20.51 156.25, 18.8 153.87 C17.08 151.5, 15.46 149.01, 13.95 146.45 C12.45 143.9, 11.05 141.24, 9.78 138.53 C8.5 135.82, 7.34 133.02, 6.3 130.18 C5.27 127.33, 4.35 124.42, 3.57 121.48 C2.78 118.53, 2.12 115.53, 1.59 112.51 C1.06 109.5, 0.66 106.44, 0.4 103.38 C0.13 100.31, 0 97.22, 0 94.15 C0 91.07, 0.13 87.98, 0.4 84.92 C0.66 81.86, 1.06 78.8, 1.59 75.78 C2.12 72.76, 2.78 69.76, 3.57 66.82 C4.35 63.87, 5.27 60.96, 6.3 58.12 C7.34 55.28, 8.5 52.48, 9.78 49.77 C11.05 47.05, 12.45 44.4, 13.95 41.84 C15.46 39.28, 17.08 36.8, 18.8 34.42 C20.51 32.04, 22.34 29.75, 24.25 27.58 C26.17 25.4, 28.18 23.32, 30.27 21.37 C32.36 19.42, 34.55 17.58, 36.8 15.87 C39.05 14.16, 41.38 12.57, 43.77 11.12 C46.16 9.67, 48.62 8.34, 51.12 7.17 C53.62 5.99, 56.18 4.95, 58.77 4.05 C61.36 3.16, 64 2.41, 66.65 1.81 C69.3 1.21, 72 0.75, 74.69 0.45 C77.38 0.15, 80.1 0, 82.8 0 C85.51 0, 88.23 0.15, 90.92 0.45 C93.61 0.75, 96.3 1.21, 98.96 1.81 C101.61 2.41, 104.25 3.16, 106.84 4.05 C109.43 4.95, 111.99 5.99, 114.49 7.17 C116.99 8.34, 119.45 9.67, 121.84 11.12 C124.22 12.57, 126.56 14.16, 128.81 15.87 C131.06 17.58, 133.24 19.42, 135.33 21.37 C137.42 23.32, 139.44 25.4, 141.35 27.58 C143.27 29.75, 145.1 32.04, 146.81 34.42 C148.53 36.8, 150.15 39.28, 151.65 41.84 C153.16 44.4, 154.55 47.05, 155.83 49.77 C157.11 52.48, 158.27 55.28, 159.3 58.12 C160.34 60.96, 161.26 63.87, 162.04 66.82 C162.83 69.76, 163.49 72.76, 164.02 75.78 C164.54 78.8, 164.94 81.86, 165.21 84.92 C165.47 87.98, 165.54 92.61, 165.61 94.15 C165.67 95.69, 165.67 92.61, 165.61 94.15" stroke="#1e1e1e" stroke-width="4" fill="none"></path></g><g stroke-linecap="round" transform="translate(1009.4019107155082 706.6994932381142) rotate(0 11.810768656969458 38.31154850303437)"><path d="M23.62 38.31 C23.62 40.53, 23.56 42.78, 23.44 44.96 C23.32 47.15, 23.14 49.33, 22.91 51.41 C22.68 53.5, 22.38 55.55, 22.04 57.47 C21.7 59.39, 21.3 61.24, 20.86 62.94 C20.42 64.64, 19.93 66.23, 19.4 67.66 C18.88 69.09, 18.31 70.38, 17.72 71.49 C17.12 72.6, 16.49 73.55, 15.85 74.31 C15.21 75.07, 14.53 75.66, 13.86 76.04 C13.19 76.43, 12.49 76.62, 11.81 76.62 C11.13 76.62, 10.43 76.43, 9.76 76.04 C9.09 75.66, 8.41 75.07, 7.77 74.31 C7.13 73.55, 6.5 72.6, 5.91 71.49 C5.31 70.38, 4.74 69.09, 4.22 67.66 C3.7 66.23, 3.2 64.64, 2.76 62.94 C2.32 61.24, 1.92 59.39, 1.58 57.47 C1.24 55.55, 0.95 53.5, 0.71 51.41 C0.48 49.33, 0.3 47.15, 0.18 44.96 C0.06 42.78, 0 40.53, 0 38.31 C0 36.09, 0.06 33.84, 0.18 31.66 C0.3 29.47, 0.48 27.29, 0.71 25.21 C0.95 23.12, 1.24 21.08, 1.58 19.16 C1.92 17.24, 2.32 15.38, 2.76 13.69 C3.2 11.99, 3.7 10.39, 4.22 8.96 C4.74 7.54, 5.31 6.24, 5.91 5.13 C6.5 4.02, 7.13 3.07, 7.77 2.31 C8.41 1.55, 9.09 0.97, 9.76 0.58 C10.43 0.2, 11.13 0, 11.81 0 C12.49 0, 13.19 0.2, 13.86 0.58 C14.53 0.97, 15.21 1.55, 15.85 2.31 C16.49 3.07, 17.12 4.02, 17.72 5.13 C18.31 6.24, 18.88 7.54, 19.4 8.96 C19.93 10.39, 20.42 11.99, 20.86 13.69 C21.3 15.38, 21.7 17.24, 22.04 19.16 C22.38 21.08, 22.68 23.12, 22.91 25.21 C23.14 27.29, 23.32 29.47, 23.44 31.66 C23.56 33.84, 23.59 37.2, 23.62 38.31 C23.65 39.42, 23.65 37.2, 23.62 38.31" stroke="#1e1e1e" stroke-width="4" fill="none"></path></g><g stroke-linecap="round" transform="translate(937.1566321748376 700.5710898881664) rotate(0 10.192079476485901 40.434382734886185)"><path d="M20.38 40.43 C20.38 42.77, 20.33 45.15, 20.23 47.46 C20.13 49.76, 19.97 52.06, 19.77 54.26 C19.57 56.46, 19.31 58.62, 19.02 60.65 C18.72 62.68, 18.38 64.63, 18 66.43 C17.62 68.22, 17.2 69.9, 16.74 71.41 C16.29 72.91, 15.8 74.28, 15.29 75.45 C14.78 76.62, 14.23 77.63, 13.68 78.43 C13.12 79.23, 12.54 79.85, 11.96 80.25 C11.38 80.66, 10.78 80.87, 10.19 80.87 C9.6 80.87, 9 80.66, 8.42 80.25 C7.84 79.85, 7.26 79.23, 6.71 78.43 C6.15 77.63, 5.61 76.62, 5.1 75.45 C4.59 74.28, 4.09 72.91, 3.64 71.41 C3.19 69.9, 2.76 68.22, 2.38 66.43 C2.01 64.63, 1.66 62.68, 1.37 60.65 C1.07 58.62, 0.82 56.46, 0.61 54.26 C0.41 52.06, 0.26 49.76, 0.15 47.46 C0.05 45.15, 0 42.77, 0 40.43 C0 38.09, 0.05 35.72, 0.15 33.41 C0.26 31.11, 0.41 28.8, 0.61 26.61 C0.82 24.41, 1.07 22.24, 1.37 20.22 C1.66 18.19, 2.01 16.24, 2.38 14.44 C2.76 12.65, 3.19 10.96, 3.64 9.46 C4.09 7.96, 4.59 6.59, 5.1 5.42 C5.61 4.25, 6.15 3.24, 6.71 2.44 C7.26 1.64, 7.84 1.02, 8.42 0.61 C9 0.21, 9.6 0, 10.19 0 C10.78 0, 11.38 0.21, 11.96 0.61 C12.54 1.02, 13.12 1.64, 13.68 2.44 C14.23 3.24, 14.78 4.25, 15.29 5.42 C15.8 6.59, 16.29 7.96, 16.74 9.46 C17.2 10.96, 17.62 12.65, 18 14.44 C18.38 16.24, 18.72 18.19, 19.02 20.22 C19.31 22.24, 19.57 24.41, 19.77 26.61 C19.97 28.8, 20.13 31.11, 20.23 33.41 C20.33 35.72, 20.36 39.26, 20.38 40.43 C20.41 41.6, 20.41 39.26, 20.38 40.43" stroke="#1e1e1e" stroke-width="4" fill="none"></path></g><g stroke-linecap="round"><g transform="translate(941.1333385119347 802.2323315387277) rotate(0 42.499576170616706 17.88809851236124)"><path d="M0 0 C7.54 5.96, 31.07 35.49, 45.24 35.78 C59.41 36.06, 78.37 7.4, 85 1.73 M0 0 C7.54 5.96, 31.07 35.49, 45.24 35.78 C59.41 36.06, 78.37 7.4, 85 1.73" stroke="#1e1e1e" stroke-width="4" fill="none"></path></g></g><mask></mask><g transform="translate(967.8116585185699 875.1013507484879) rotate(0 31.275985717773438 17.5)"><text x="0" y="0" font-family="Virgil, Segoe UI Emoji" font-size="28px" fill="#1e1e1e" text-anchor="start" style="white-space: pre;" direction="ltr" dominant-baseline="text-before-edge">User</text></g><g transform="translate(1588.1428498485998 552.8317943136801) rotate(0 53.53302001953125 32.937297180405835)"><text x="0" y="0" font-family="Virgil, Segoe UI Emoji" font-size="52.69967548864937px" fill="#1971c2" text-anchor="start" style="white-space: pre;" direction="ltr" dominant-baseline="text-before-edge">Pool</text></g><g stroke-linecap="round" transform="translate(1557.3850944946457 1553.7683067415712) rotate(0 120.45943105143579 93.2940019665682)"><path d="M32 0 C91.68 0, 151.37 0, 208.92 0 C230.25 0, 240.92 10.67, 240.92 32 C240.92 69.11, 240.92 106.21, 240.92 154.59 C240.92 175.92, 230.25 186.59, 208.92 186.59 C172.72 186.59, 136.52 186.59, 32 186.59 C10.67 186.59, 0 175.92, 0 154.59 C0 122.72, 0 90.86, 0 32 C0 10.67, 10.67 0, 32 0" stroke="none" stroke-width="0" fill="#a5d8ff"></path><path d="M32 0 C91.53 0, 151.06 0, 208.92 0 M32 0 C74.3 0, 116.61 0, 208.92 0 M208.92 0 C230.25 0, 240.92 10.67, 240.92 32 M208.92 0 C230.25 0, 240.92 10.67, 240.92 32 M240.92 32 C240.92 60.88, 240.92 89.76, 240.92 154.59 M240.92 32 C240.92 66.11, 240.92 100.22, 240.92 154.59 M240.92 154.59 C240.92 175.92, 230.25 186.59, 208.92 186.59 M240.92 154.59 C240.92 175.92, 230.25 186.59, 208.92 186.59 M208.92 186.59 C141.43 186.59, 73.95 186.59, 32 186.59 M208.92 186.59 C140.46 186.59, 72.01 186.59, 32 186.59 M32 186.59 C10.67 186.59, 0 175.92, 0 154.59 M32 186.59 C10.67 186.59, 0 175.92, 0 154.59 M0 154.59 C0 125.72, 0 96.84, 0 32 M0 154.59 C0 118.3, 0 82.02, 0 32 M0 32 C0 10.67, 10.67 0, 32 0 M0 32 C0 10.67, 10.67 0, 32 0" stroke="#1971c2" stroke-width="2" fill="none"></path></g><g transform="translate(1612.3245746793823 1612.0623087081392) rotate(0 65.51995086669922 35)"><text x="65.51995086669922" y="0" font-family="Virgil, Segoe UI Emoji" font-size="28px" fill="#1971c2" text-anchor="middle" style="white-space: pre;" direction="ltr" dominant-baseline="text-before-edge">Oracle</text><text x="65.51995086669922" y="35" font-family="Virgil, Segoe UI Emoji" font-size="28px" fill="#1971c2" text-anchor="middle" style="white-space: pre;" direction="ltr" dominant-baseline="text-before-edge">(Chainlink)</text></g><g mask="url(#mask-tmzF_xtuuHM7TXHsrN1-W)" stroke-linecap="round"><g transform="translate(1808.587999528151 1607.4844424219616) rotate(0 77.41903286221202 -191.67988519456685)"><path d="M0 0 C25.81 -37.54, 143.17 -161.33, 154.84 -225.22 C166.5 -289.12, 84.13 -357, 69.99 -383.36 M0 0 C25.81 -37.54, 143.17 -161.33, 154.84 -225.22 C166.5 -289.12, 84.13 -357, 69.99 -383.36" stroke="#1971c2" stroke-width="2" fill="none"></path></g><g transform="translate(1808.587999528151 1607.4844424219616) rotate(0 77.41903286221202 -191.67988519456685)"><path d="M91.3 -370.28 C86.83 -373.02, 82.37 -375.76, 69.99 -383.36 M91.3 -370.28 C85.93 -373.58, 80.55 -376.88, 69.99 -383.36" stroke="#1971c2" stroke-width="2" fill="none"></path></g><g transform="translate(1808.587999528151 1607.4844424219616) rotate(0 77.41903286221202 -191.67988519456685)"><path d="M77.91 -359.65 C76.25 -364.62, 74.59 -369.59, 69.99 -383.36 M77.91 -359.65 C75.91 -365.63, 73.92 -371.61, 69.99 -383.36" stroke="#1971c2" stroke-width="2" fill="none"></path></g></g><mask id="mask-tmzF_xtuuHM7TXHsrN1-W"><rect x="0" y="0" fill="#fff" width="2063.426065252575" height="2090.8442128110955"></rect><rect x="1830.7201021178091" y="1312.2595379465724" fill="#000" width="265.41192626953125" height="140" opacity="1"></rect></mask><g transform="translate(1830.7201021178093 1312.2595379465724) rotate(0 55.85073155047655 103.54501928082254)"><text x="132.70596313476562" y="0" font-family="Virgil, Segoe UI Emoji" font-size="28px" fill="#1971c2" text-anchor="middle" style="white-space: pre;" direction="ltr" dominant-baseline="text-before-edge">Are these minted </text><text x="132.70596313476562" y="35" font-family="Virgil, Segoe UI Emoji" font-size="28px" fill="#1971c2" text-anchor="middle" style="white-space: pre;" direction="ltr" dominant-baseline="text-before-edge">ERC20 tokens </text><text x="132.70596313476562" y="70" font-family="Virgil, Segoe UI Emoji" font-size="28px" fill="#1971c2" text-anchor="middle" style="white-space: pre;" direction="ltr" dominant-baseline="text-before-edge">REALLY backed by </text><text x="132.70596313476562" y="105" font-family="Virgil, Segoe UI Emoji" font-size="28px" fill="#1971c2" text-anchor="middle" style="white-space: pre;" direction="ltr" dominant-baseline="text-before-edge">the stocks? </text></g><g stroke-linecap="round"><g transform="translate(1965.7119445759686 829.6942442478278) rotate(0 -91.5049757569592 43.74080290238362)"><path d="M0 0 C-30.5 14.58, -152.51 72.9, -183.01 87.48 M0 0 C-30.5 14.58, -152.51 72.9, -183.01 87.48" stroke="#f08c00" stroke-width="2" fill="none"></path></g><g transform="translate(1965.7119445759686 829.6942442478278) rotate(0 -91.5049757569592 43.74080290238362)"><path d="M-165.5 69.64 C-170.88 75.12, -176.26 80.6, -183.01 87.48 M-165.5 69.64 C-170.51 74.74, -175.52 79.85, -183.01 87.48" stroke="#f08c00" stroke-width="2" fill="none"></path></g><g transform="translate(1965.7119445759686 829.6942442478278) rotate(0 -91.5049757569592 43.74080290238362)"><path d="M-158.13 85.06 C-165.77 85.81, -173.41 86.55, -183.01 87.48 M-158.13 85.06 C-165.25 85.76, -172.37 86.45, -183.01 87.48" stroke="#f08c00" stroke-width="2" fill="none"></path></g></g><mask></mask><g stroke-linecap="round"><g transform="translate(1826.6686122598257 1003.852519092706) rotate(0 107.60447394296955 14.92006577832035)"><path d="M0 0 C35.87 4.97, 179.34 24.87, 215.21 29.84 M0 0 C35.87 4.97, 179.34 24.87, 215.21 29.84" stroke="#f08c00" stroke-width="4" fill="none"></path></g><g transform="translate(1826.6686122598257 1003.852519092706) rotate(0 107.60447394296955 14.92006577832035)"><path d="M190.76 35.08 C200.37 33.02, 209.97 30.96, 215.21 29.84 M190.76 35.08 C199.31 33.25, 207.85 31.42, 215.21 29.84" stroke="#f08c00" stroke-width="4" fill="none"></path></g><g transform="translate(1826.6686122598257 1003.852519092706) rotate(0 107.60447394296955 14.92006577832035)"><path d="M193.11 18.14 C201.79 22.74, 210.47 27.33, 215.21 29.84 M193.11 18.14 C200.83 22.23, 208.55 26.32, 215.21 29.84" stroke="#f08c00" stroke-width="4" fill="none"></path></g></g><mask></mask><g stroke-linecap="round" transform="translate(2045.1639768765144 946.7253195121623) rotate(0 103.91202054666098 90.29493644782724)"><path d="M124.65 1.59 C137.13 2.43, 150.79 8.95, 161.81 15.44 C172.83 21.93, 183.33 30.95, 190.76 40.51 C198.19 50.07, 203.87 61.48, 206.37 72.8 C208.87 84.12, 208.55 97, 205.75 108.45 C202.95 119.89, 197.02 131.95, 189.59 141.48 C182.16 151.01, 172.27 159.54, 161.16 165.65 C150.04 171.77, 135.97 175.9, 122.92 178.18 C109.88 180.45, 95.93 181.4, 82.89 179.3 C69.86 177.21, 55.91 172.33, 44.74 165.62 C33.56 158.9, 23.05 148.72, 15.84 139.03 C8.62 129.34, 3.58 118.77, 1.44 107.48 C-0.71 96.19, 0.09 82.63, 2.98 71.3 C5.86 59.97, 11.43 49.06, 18.75 39.5 C26.07 29.94, 35.89 20.26, 46.91 13.95 C57.93 7.63, 70.06 3.01, 84.85 1.59 C99.64 0.17, 125.61 3.96, 135.65 5.44 C145.69 6.91, 145.69 9.22, 145.1 10.43 M76.47 4.43 C88.39 0.22, 103.65 -0.92, 116.8 0.36 C129.96 1.65, 143.95 6.41, 155.42 12.16 C166.89 17.91, 177.55 25.8, 185.62 34.86 C193.68 43.91, 199.95 55.45, 203.79 66.49 C207.62 77.54, 210.25 89.86, 208.63 101.12 C207.01 112.38, 200.7 124.04, 194.08 134.04 C187.45 144.03, 178.92 153.78, 168.88 161.11 C158.83 168.44, 146.69 174.97, 133.8 178.04 C120.92 181.1, 104.96 180.83, 91.56 179.48 C78.17 178.14, 65.06 175.31, 53.44 169.96 C41.83 164.6, 30.29 156.31, 21.9 147.37 C13.51 138.42, 6.47 127.52, 3.13 116.28 C-0.2 105.04, 0.16 91.48, 1.89 79.91 C3.62 68.34, 7.1 56.87, 13.53 46.87 C19.95 36.86, 30.05 27.27, 40.42 19.86 C50.8 12.46, 70.04 4.99, 75.78 2.43 C81.52 -0.13, 74.61 2.92, 74.88 4.5" stroke="none" stroke-width="0" fill="#a5d8ff"></path><path d="M77.12 2.67 C88.67 -1.77, 103.24 -1.62, 116.46 0.09 C129.69 1.8, 144.84 7.19, 156.48 12.93 C168.12 18.66, 178.3 25.73, 186.31 34.51 C194.31 43.29, 201.1 54.36, 204.51 65.61 C207.92 76.86, 208.64 90.58, 206.77 102.02 C204.9 113.45, 199.77 124.35, 193.3 134.24 C186.83 144.13, 178.35 154.27, 167.93 161.35 C157.52 168.43, 143.68 173.67, 130.82 176.73 C117.96 179.78, 103.99 181, 90.77 179.68 C77.55 178.37, 63.03 174.6, 51.49 168.85 C39.95 163.1, 29.37 154.2, 21.56 145.2 C13.75 136.19, 7.94 125.79, 4.6 114.8 C1.27 103.82, 0.11 90.74, 1.55 79.3 C2.99 67.87, 6.6 56.24, 13.22 46.17 C19.85 36.1, 29.1 26.33, 41.28 18.88 C53.47 11.42, 77.38 4.11, 86.32 1.43 C95.26 -1.25, 94.67 1.46, 94.94 2.8 M117 0.13 C130.1 0.08, 145.93 5.19, 157.52 11.23 C169.12 17.28, 178.9 26.86, 186.56 36.4 C194.22 45.94, 200.33 57.24, 203.48 68.47 C206.63 79.71, 207.3 92.63, 205.46 103.82 C203.62 115.02, 199.08 125.9, 192.46 135.63 C185.84 145.36, 176.31 155.27, 165.74 162.2 C155.16 169.13, 141.74 174.11, 129.04 177.21 C116.33 180.32, 102.3 182.11, 89.51 180.84 C76.72 179.58, 63.69 175.76, 52.3 169.62 C40.91 163.47, 29.55 153.5, 21.18 143.98 C12.82 134.45, 5.46 123.51, 2.11 112.48 C-1.25 101.45, -0.78 89.3, 1.05 77.79 C2.87 66.29, 6.27 53.49, 13.05 43.43 C19.83 33.37, 31.06 23.99, 41.72 17.44 C52.37 10.9, 64.22 6.72, 76.98 4.16 C89.73 1.6, 111.55 2.57, 118.24 2.08 C124.92 1.6, 117.18 -0.14, 117.11 1.25" stroke="#1971c2" stroke-width="2" fill="none"></path></g><g transform="translate(2098.7691164755697 1002.172094090922) rotate(0 50.329986572265625 35)"><text x="50.329986572265625" y="0" font-family="Virgil, Segoe UI Emoji" font-size="28px" fill="#1971c2" text-anchor="middle" style="white-space: pre;" direction="ltr" dominant-baseline="text-before-edge">1 Tesla</text><text x="50.329986572265625" y="35" font-family="Virgil, Segoe UI Emoji" font-size="28px" fill="#1971c2" text-anchor="middle" style="white-space: pre;" direction="ltr" dominant-baseline="text-before-edge">ERC20</text></g><g transform="translate(2137.754685489399 1240.00477578814) rotate(0 339.02386474609375 210)"><text x="0" y="0" font-family="Virgil, Segoe UI Emoji" font-size="28px" fill="#2f9e44" text-anchor="start" style="white-space: pre;" direction="ltr" dominant-baseline="text-before-edge">The difference here, is that instead of the </text><text x="0" y="35" font-family="Virgil, Segoe UI Emoji" font-size="28px" fill="#2f9e44" text-anchor="start" style="white-space: pre;" direction="ltr" dominant-baseline="text-before-edge">Chainlink oracle looking for a difference in price</text><text x="0" y="70" font-family="Virgil, Segoe UI Emoji" font-size="28px" fill="#2f9e44" text-anchor="start" style="white-space: pre;" direction="ltr" dominant-baseline="text-before-edge">it's instead checking to see that the total</text><text x="0" y="105" font-family="Virgil, Segoe UI Emoji" font-size="28px" fill="#2f9e44" text-anchor="start" style="white-space: pre;" direction="ltr" dominant-baseline="text-before-edge">value of assets minted on-chain (total TSLA </text><text x="0" y="140" font-family="Virgil, Segoe UI Emoji" font-size="28px" fill="#2f9e44" text-anchor="start" style="white-space: pre;" direction="ltr" dominant-baseline="text-before-edge">ERC20 tokens) is equal to or more than the</text><text x="0" y="175" font-family="Virgil, Segoe UI Emoji" font-size="28px" fill="#2f9e44" text-anchor="start" style="white-space: pre;" direction="ltr" dominant-baseline="text-before-edge">total amount in reserves.</text><text x="0" y="210" font-family="Virgil, Segoe UI Emoji" font-size="28px" fill="#2f9e44" text-anchor="start" style="white-space: pre;" direction="ltr" dominant-baseline="text-before-edge"></text><text x="0" y="245" font-family="Virgil, Segoe UI Emoji" font-size="28px" fill="#2f9e44" text-anchor="start" style="white-space: pre;" direction="ltr" dominant-baseline="text-before-edge">This is also known as proof of reserves. </text><text x="0" y="280" font-family="Virgil, Segoe UI Emoji" font-size="28px" fill="#2f9e44" text-anchor="start" style="white-space: pre;" direction="ltr" dominant-baseline="text-before-edge"></text><text x="0" y="315" font-family="Virgil, Segoe UI Emoji" font-size="28px" fill="#2f9e44" text-anchor="start" style="white-space: pre;" direction="ltr" dominant-baseline="text-before-edge">This is a bit more of a centralized way to mint</text><text x="0" y="350" font-family="Virgil, Segoe UI Emoji" font-size="28px" fill="#2f9e44" text-anchor="start" style="white-space: pre;" direction="ltr" dominant-baseline="text-before-edge">assets, but the ERC20s are actually backed by</text><text x="0" y="385" font-family="Virgil, Segoe UI Emoji" font-size="28px" fill="#2f9e44" text-anchor="start" style="white-space: pre;" direction="ltr" dominant-baseline="text-before-edge">the asset they represent. </text></g><g stroke-linecap="round" transform="translate(2223.556725385168 712.970951403998) rotate(0 82.80354660427895 94.14742481266717)"><path d="M165.61 94.15 C165.61 97.22, 165.47 100.31, 165.21 103.38 C164.94 106.44, 164.54 109.5, 164.02 112.51 C163.49 115.53, 162.83 118.53, 162.04 121.48 C161.26 124.42, 160.34 127.33, 159.3 130.18 C158.27 133.02, 157.11 135.82, 155.83 138.53 C154.55 141.24, 153.16 143.9, 151.65 146.45 C150.15 149.01, 148.53 151.5, 146.81 153.87 C145.1 156.25, 143.27 158.54, 141.35 160.72 C139.44 162.89, 137.42 164.97, 135.33 166.92 C133.24 168.88, 131.06 170.72, 128.81 172.43 C126.56 174.14, 124.22 175.73, 121.84 177.18 C119.45 178.63, 116.99 179.95, 114.49 181.13 C111.99 182.31, 109.43 183.35, 106.84 184.24 C104.25 185.13, 101.61 185.89, 98.96 186.49 C96.3 187.09, 93.61 187.54, 90.92 187.84 C88.23 188.14, 85.51 188.29, 82.8 188.29 C80.1 188.29, 77.38 188.14, 74.69 187.84 C72 187.54, 69.3 187.09, 66.65 186.49 C64 185.89, 61.36 185.13, 58.77 184.24 C56.18 183.35, 53.62 182.31, 51.12 181.13 C48.62 179.95, 46.16 178.63, 43.77 177.18 C41.38 175.73, 39.05 174.14, 36.8 172.43 C34.55 170.72, 32.36 168.88, 30.27 166.92 C28.18 164.97, 26.17 162.89, 24.25 160.72 C22.34 158.54, 20.51 156.25, 18.8 153.87 C17.08 151.5, 15.46 149.01, 13.95 146.45 C12.45 143.9, 11.05 141.24, 9.78 138.53 C8.5 135.82, 7.34 133.02, 6.3 130.18 C5.27 127.33, 4.35 124.42, 3.57 121.48 C2.78 118.53, 2.12 115.53, 1.59 112.51 C1.06 109.5, 0.66 106.44, 0.4 103.38 C0.13 100.31, 0 97.22, 0 94.15 C0 91.07, 0.13 87.98, 0.4 84.92 C0.66 81.86, 1.06 78.8, 1.59 75.78 C2.12 72.76, 2.78 69.76, 3.57 66.82 C4.35 63.87, 5.27 60.96, 6.3 58.12 C7.34 55.28, 8.5 52.48, 9.78 49.77 C11.05 47.05, 12.45 44.4, 13.95 41.84 C15.46 39.28, 17.08 36.8, 18.8 34.42 C20.51 32.04, 22.34 29.75, 24.25 27.58 C26.17 25.4, 28.18 23.32, 30.27 21.37 C32.36 19.42, 34.55 17.58, 36.8 15.87 C39.05 14.16, 41.38 12.57, 43.77 11.12 C46.16 9.67, 48.62 8.34, 51.12 7.17 C53.62 5.99, 56.18 4.95, 58.77 4.05 C61.36 3.16, 64 2.41, 66.65 1.81 C69.3 1.21, 72 0.75, 74.69 0.45 C77.38 0.15, 80.1 0, 82.8 0 C85.51 0, 88.23 0.15, 90.92 0.45 C93.61 0.75, 96.3 1.21, 98.96 1.81 C101.61 2.41, 104.25 3.16, 106.84 4.05 C109.43 4.95, 111.99 5.99, 114.49 7.17 C116.99 8.34, 119.45 9.67, 121.84 11.12 C124.22 12.57, 126.56 14.16, 128.81 15.87 C131.06 17.58, 133.24 19.42, 135.33 21.37 C137.42 23.32, 139.44 25.4, 141.35 27.58 C143.27 29.75, 145.1 32.04, 146.81 34.42 C148.53 36.8, 150.15 39.28, 151.65 41.84 C153.16 44.4, 154.55 47.05, 155.83 49.77 C157.11 52.48, 158.27 55.28, 159.3 58.12 C160.34 60.96, 161.26 63.87, 162.04 66.82 C162.83 69.76, 163.49 72.76, 164.02 75.78 C164.54 78.8, 164.94 81.86, 165.21 84.92 C165.47 87.98, 165.54 92.61, 165.61 94.15 C165.67 95.69, 165.67 92.61, 165.61 94.15" stroke="#1e1e1e" stroke-width="4" fill="none"></path></g><g stroke-linecap="round" transform="translate(2330.1240464444027 759.398069703255) rotate(0 11.810768656969458 38.31154850303437)"><path d="M23.62 38.31 C23.62 40.53, 23.56 42.78, 23.44 44.96 C23.32 47.15, 23.14 49.33, 22.91 51.41 C22.68 53.5, 22.38 55.55, 22.04 57.47 C21.7 59.39, 21.3 61.24, 20.86 62.94 C20.42 64.64, 19.93 66.23, 19.4 67.66 C18.88 69.09, 18.31 70.38, 17.72 71.49 C17.12 72.6, 16.49 73.55, 15.85 74.31 C15.21 75.07, 14.53 75.66, 13.86 76.04 C13.19 76.43, 12.49 76.62, 11.81 76.62 C11.13 76.62, 10.43 76.43, 9.76 76.04 C9.09 75.66, 8.41 75.07, 7.77 74.31 C7.13 73.55, 6.5 72.6, 5.91 71.49 C5.31 70.38, 4.74 69.09, 4.22 67.66 C3.7 66.23, 3.2 64.64, 2.76 62.94 C2.32 61.24, 1.92 59.39, 1.58 57.47 C1.24 55.55, 0.95 53.5, 0.71 51.41 C0.48 49.33, 0.3 47.15, 0.18 44.96 C0.06 42.78, 0 40.53, 0 38.31 C0 36.09, 0.06 33.84, 0.18 31.66 C0.3 29.47, 0.48 27.29, 0.71 25.21 C0.95 23.12, 1.24 21.08, 1.58 19.16 C1.92 17.24, 2.32 15.38, 2.76 13.69 C3.2 11.99, 3.7 10.39, 4.22 8.96 C4.74 7.54, 5.31 6.24, 5.91 5.13 C6.5 4.02, 7.13 3.07, 7.77 2.31 C8.41 1.55, 9.09 0.97, 9.76 0.58 C10.43 0.2, 11.13 0, 11.81 0 C12.49 0, 13.19 0.2, 13.86 0.58 C14.53 0.97, 15.21 1.55, 15.85 2.31 C16.49 3.07, 17.12 4.02, 17.72 5.13 C18.31 6.24, 18.88 7.54, 19.4 8.96 C19.93 10.39, 20.42 11.99, 20.86 13.69 C21.3 15.38, 21.7 17.24, 22.04 19.16 C22.38 21.08, 22.68 23.12, 22.91 25.21 C23.14 27.29, 23.32 29.47, 23.44 31.66 C23.56 33.84, 23.59 37.2, 23.62 38.31 C23.65 39.42, 23.65 37.2, 23.62 38.31" stroke="#1e1e1e" stroke-width="4" fill="none"></path></g><g stroke-linecap="round" transform="translate(2257.878767903732 753.2696663533072) rotate(0 10.192079476485901 40.434382734886185)"><path d="M20.38 40.43 C20.38 42.77, 20.33 45.15, 20.23 47.46 C20.13 49.76, 19.97 52.06, 19.77 54.26 C19.57 56.46, 19.31 58.62, 19.02 60.65 C18.72 62.68, 18.38 64.63, 18 66.43 C17.62 68.22, 17.2 69.9, 16.74 71.41 C16.29 72.91, 15.8 74.28, 15.29 75.45 C14.78 76.62, 14.23 77.63, 13.68 78.43 C13.12 79.23, 12.54 79.85, 11.96 80.25 C11.38 80.66, 10.78 80.87, 10.19 80.87 C9.6 80.87, 9 80.66, 8.42 80.25 C7.84 79.85, 7.26 79.23, 6.71 78.43 C6.15 77.63, 5.61 76.62, 5.1 75.45 C4.59 74.28, 4.09 72.91, 3.64 71.41 C3.19 69.9, 2.76 68.22, 2.38 66.43 C2.01 64.63, 1.66 62.68, 1.37 60.65 C1.07 58.62, 0.82 56.46, 0.61 54.26 C0.41 52.06, 0.26 49.76, 0.15 47.46 C0.05 45.15, 0 42.77, 0 40.43 C0 38.09, 0.05 35.72, 0.15 33.41 C0.26 31.11, 0.41 28.8, 0.61 26.61 C0.82 24.41, 1.07 22.24, 1.37 20.22 C1.66 18.19, 2.01 16.24, 2.38 14.44 C2.76 12.65, 3.19 10.96, 3.64 9.46 C4.09 7.96, 4.59 6.59, 5.1 5.42 C5.61 4.25, 6.15 3.24, 6.71 2.44 C7.26 1.64, 7.84 1.02, 8.42 0.61 C9 0.21, 9.6 0, 10.19 0 C10.78 0, 11.38 0.21, 11.96 0.61 C12.54 1.02, 13.12 1.64, 13.68 2.44 C14.23 3.24, 14.78 4.25, 15.29 5.42 C15.8 6.59, 16.29 7.96, 16.74 9.46 C17.2 10.96, 17.62 12.65, 18 14.44 C18.38 16.24, 18.72 18.19, 19.02 20.22 C19.31 22.24, 19.57 24.41, 19.77 26.61 C19.97 28.8, 20.13 31.11, 20.23 33.41 C20.33 35.72, 20.36 39.26, 20.38 40.43 C20.41 41.6, 20.41 39.26, 20.38 40.43" stroke="#1e1e1e" stroke-width="4" fill="none"></path></g><g stroke-linecap="round"><g transform="translate(2261.855474240829 854.9309080038686) rotate(0 42.499576170616706 17.88809851236124)"><path d="M0 0 C7.54 5.96, 31.07 35.49, 45.24 35.78 C59.41 36.06, 78.37 7.4, 85 1.73 M0 0 C7.54 5.96, 31.07 35.49, 45.24 35.78 C59.41 36.06, 78.37 7.4, 85 1.73" stroke="#1e1e1e" stroke-width="4" fill="none"></path></g></g><mask></mask><g transform="translate(2288.5337942474644 927.7999272136287) rotate(0 71.14796447753906 17.5)"><text x="0" y="0" font-family="Virgil, Segoe UI Emoji" font-size="28px" fill="#1e1e1e" text-anchor="start" style="white-space: pre;" direction="ltr" dominant-baseline="text-before-edge">User/Bank</text></g><g stroke-linecap="round" transform="translate(1370.8381351993185 721.6293225055563) rotate(0 276.4842928830567 296.05486806789804)"><path d="M552.97 296.05 C552.97 301.79, 552.81 307.54, 552.5 313.27 C552.19 319, 551.72 324.73, 551.1 330.42 C550.48 336.12, 549.7 341.81, 548.77 347.46 C547.84 353.12, 546.75 358.75, 545.52 364.33 C544.28 369.91, 542.89 375.47, 541.35 380.96 C539.82 386.46, 538.13 391.92, 536.29 397.31 C534.46 402.7, 532.48 408.05, 530.36 413.32 C528.23 418.58, 525.96 423.8, 523.56 428.92 C521.15 434.05, 518.61 439.11, 515.93 444.08 C513.25 449.05, 510.43 453.95, 507.48 458.74 C504.54 463.53, 501.46 468.24, 498.26 472.85 C495.06 477.45, 491.73 481.96, 488.28 486.36 C484.84 490.75, 481.27 495.05, 477.59 499.22 C473.91 503.39, 470.12 507.46, 466.22 511.4 C462.32 515.34, 458.31 519.16, 454.2 522.85 C450.1 526.53, 445.89 530.1, 441.59 533.53 C437.29 536.95, 432.89 540.25, 428.41 543.41 C423.94 546.56, 419.37 549.58, 414.73 552.45 C410.09 555.31, 405.36 558.04, 400.57 560.62 C395.78 563.19, 390.91 565.62, 385.99 567.9 C381.07 570.17, 376.08 572.29, 371.05 574.26 C366.01 576.22, 360.91 578.03, 355.78 579.67 C350.65 581.32, 345.46 582.81, 340.25 584.13 C335.03 585.45, 329.77 586.62, 324.5 587.61 C319.22 588.61, 313.9 589.44, 308.58 590.11 C303.26 590.77, 297.91 591.28, 292.56 591.61 C287.21 591.94, 281.84 592.11, 276.48 592.11 C271.13 592.11, 265.76 591.94, 260.41 591.61 C255.06 591.28, 249.71 590.77, 244.39 590.11 C239.06 589.44, 233.75 588.61, 228.47 587.61 C223.2 586.62, 217.94 585.45, 212.72 584.13 C207.51 582.81, 202.32 581.32, 197.19 579.67 C192.05 578.03, 186.96 576.22, 181.92 574.26 C176.89 572.29, 171.89 570.17, 166.97 567.9 C162.05 565.62, 157.19 563.19, 152.4 560.62 C147.61 558.04, 142.88 555.31, 138.24 552.45 C133.6 549.58, 129.03 546.56, 124.55 543.41 C120.08 540.25, 115.68 536.95, 111.38 533.53 C107.08 530.1, 102.87 526.53, 98.76 522.85 C94.66 519.16, 90.65 515.34, 86.75 511.4 C82.85 507.46, 79.05 503.39, 75.38 499.22 C71.7 495.05, 68.13 490.75, 64.69 486.36 C61.24 481.96, 57.91 477.45, 54.71 472.85 C51.51 468.24, 48.43 463.53, 45.49 458.74 C42.54 453.95, 39.72 449.05, 37.04 444.08 C34.36 439.11, 31.81 434.05, 29.41 428.92 C27 423.8, 24.73 418.58, 22.61 413.32 C20.49 408.05, 18.51 402.7, 16.67 397.31 C14.84 391.92, 13.15 386.46, 11.62 380.96 C10.08 375.47, 8.69 369.91, 7.45 364.33 C6.22 358.75, 5.13 353.12, 4.2 347.46 C3.27 341.81, 2.49 336.12, 1.87 330.42 C1.25 324.73, 0.78 319, 0.47 313.27 C0.16 307.54, 0 301.79, 0 296.05 C0 290.32, 0.16 284.57, 0.47 278.84 C0.78 273.11, 1.25 267.38, 1.87 261.68 C2.49 255.99, 3.27 250.3, 4.2 244.65 C5.13 238.99, 6.22 233.36, 7.45 227.78 C8.69 222.2, 10.08 216.64, 11.62 211.15 C13.15 205.65, 14.84 200.19, 16.67 194.8 C18.51 189.41, 20.49 184.06, 22.61 178.79 C24.73 173.52, 27 168.31, 29.41 163.19 C31.81 158.06, 34.36 153, 37.04 148.03 C39.72 143.06, 42.54 138.16, 45.49 133.37 C48.43 128.58, 51.51 123.87, 54.71 119.26 C57.91 114.66, 61.24 110.15, 64.69 105.75 C68.13 101.36, 71.7 97.06, 75.38 92.89 C79.05 88.72, 82.85 84.65, 86.75 80.71 C90.65 76.77, 94.66 72.95, 98.76 69.26 C102.87 65.58, 107.08 62.01, 111.38 58.58 C115.68 55.16, 120.08 51.86, 124.55 48.7 C129.03 45.55, 133.6 42.53, 138.24 39.66 C142.88 36.79, 147.61 34.07, 152.4 31.49 C157.19 28.92, 162.05 26.49, 166.97 24.21 C171.89 21.94, 176.89 19.82, 181.92 17.85 C186.96 15.89, 192.05 14.08, 197.19 12.44 C202.32 10.79, 207.51 9.3, 212.72 7.98 C217.94 6.66, 223.2 5.49, 228.47 4.5 C233.75 3.5, 239.06 2.67, 244.39 2 C249.71 1.34, 255.06 0.83, 260.41 0.5 C265.76 0.17, 271.13 0, 276.48 0 C281.84 0, 287.21 0.17, 292.56 0.5 C297.91 0.83, 303.26 1.34, 308.58 2 C313.9 2.67, 319.22 3.5, 324.5 4.5 C329.77 5.49, 335.03 6.66, 340.25 7.98 C345.46 9.3, 350.65 10.79, 355.78 12.44 C360.91 14.08, 366.01 15.89, 371.05 17.85 C376.08 19.82, 381.07 21.94, 385.99 24.21 C390.91 26.49, 395.78 28.92, 400.57 31.49 C405.36 34.07, 410.09 36.79, 414.73 39.66 C419.37 42.53, 423.94 45.55, 428.41 48.7 C432.89 51.86, 437.29 55.16, 441.59 58.58 C445.89 62.01, 450.1 65.58, 454.2 69.26 C458.31 72.95, 462.32 76.77, 466.22 80.71 C470.12 84.65, 473.91 88.72, 477.59 92.89 C481.27 97.06, 484.84 101.36, 488.28 105.75 C491.73 110.15, 495.06 114.66, 498.26 119.26 C501.46 123.87, 504.54 128.58, 507.48 133.37 C510.43 138.16, 513.25 143.06, 515.93 148.03 C518.61 153, 521.15 158.06, 523.56 163.19 C525.96 168.31, 528.23 173.52, 530.36 178.79 C532.48 184.06, 534.46 189.41, 536.29 194.8 C538.13 200.19, 539.82 205.65, 541.35 211.15 C542.89 216.64, 544.28 222.2, 545.52 227.78 C546.75 233.36, 547.84 238.99, 548.77 244.65 C549.7 250.3, 550.48 255.99, 551.1 261.68 C551.72 267.38, 552.19 273.11, 552.5 278.84 C552.81 284.57, 552.97 290.32, 552.97 296.05" stroke="#1971c2" stroke-width="2" fill="none"></path></g><g stroke-linecap="round"><g transform="translate(1564.3769949031503 592.4731287702284) rotate(0 78.95551466608958 -12.237332426205626)"><path d="M0 0 C26.32 -4.08, 131.59 -20.4, 157.91 -24.47 M0 0 C26.32 -4.08, 131.59 -20.4, 157.91 -24.47" stroke="#e03131" stroke-width="4" fill="none"></path></g></g><mask></mask><g transform="translate(1608.1827561945702 643.3566606627405) rotate(0 50.235450744628906 26.74801959021204)"><text x="0" y="0" font-family="Virgil, Segoe UI Emoji" font-size="42.796831344339104px" fill="#1971c2" text-anchor="start" style="white-space: pre;" direction="ltr" dominant-baseline="text-before-edge">Bank</text></g><g stroke-linecap="round" transform="translate(1447.9937730823876 818.1651575165317) rotate(0 103.91202054666098 90.29493644782724)"><path d="M76.09 4.23 C87.74 -0.24, 103.47 -0.89, 116.45 0.25 C129.43 1.39, 142.55 5.47, 153.97 11.09 C165.39 16.71, 176.77 24.89, 184.96 33.96 C193.14 43.03, 199.39 54.27, 203.1 65.5 C206.81 76.73, 208.61 89.96, 207.19 101.35 C205.77 112.74, 201.07 123.76, 194.56 133.83 C188.05 143.91, 178.37 154.71, 168.14 161.81 C157.91 168.9, 145.93 173.26, 133.19 176.42 C120.45 179.57, 105.15 181.95, 91.7 180.73 C78.26 179.51, 63.9 174.85, 52.53 169.11 C41.17 163.37, 31.67 155.11, 23.49 146.27 C15.31 137.43, 7.26 127.12, 3.44 116.05 C-0.38 104.98, -1.02 91.37, 0.57 79.86 C2.16 68.35, 6.48 57.17, 12.98 46.98 C19.49 36.79, 27.23 26.49, 39.6 18.72 C51.96 10.95, 77.32 3.1, 87.17 0.38 C97.01 -2.34, 98.54 0.76, 98.65 2.39 M129.99 1.59 C142.59 2.81, 154.23 9.51, 164.49 16.49 C174.75 23.48, 184.35 33.44, 191.55 43.48 C198.75 53.53, 205.54 65.46, 207.69 76.76 C209.84 88.05, 207.71 99.89, 204.45 111.25 C201.19 122.62, 195.99 135.29, 188.15 144.94 C180.3 154.58, 168.88 163.32, 157.37 169.1 C145.85 174.87, 131.9 177.96, 119.06 179.6 C106.22 181.24, 92.99 181.71, 80.32 178.94 C67.65 176.17, 54.19 169.89, 43.05 162.99 C31.91 156.08, 20.68 147.29, 13.47 137.49 C6.26 127.7, 1.35 115.83, -0.21 104.22 C-1.77 92.6, 0.65 79.08, 4.1 67.81 C7.55 56.54, 12.57 45.52, 20.51 36.58 C28.44 27.64, 40.15 20.21, 51.72 14.15 C63.29 8.09, 77.21 1.99, 89.92 0.22 C102.63 -1.55, 121.69 2.6, 127.97 3.54 C134.26 4.48, 127.89 4.38, 127.63 5.86" stroke="none" stroke-width="0" fill="#ffec99"></path><path d="M142.15 5.85 C154.32 8.44, 167.28 16.93, 176.8 25.18 C186.32 33.44, 194.06 44.57, 199.26 55.38 C204.47 66.19, 207.91 78.74, 208.05 90.04 C208.2 101.34, 205.13 112.68, 200.13 123.2 C195.13 133.73, 187.28 144.66, 178.08 153.19 C168.88 161.72, 157.17 169.76, 144.93 174.38 C132.7 179, 118.09 180.95, 104.67 180.9 C91.25 180.86, 76.77 178.64, 64.42 174.1 C52.06 169.57, 39.83 161.94, 30.55 153.69 C21.27 145.44, 13.8 134.96, 8.74 124.6 C3.69 114.24, 0.31 102.76, 0.22 91.54 C0.12 80.33, 3.11 68.07, 8.18 57.32 C13.26 46.57, 21.42 35.54, 30.67 27.04 C39.93 18.54, 51.68 10.89, 63.7 6.3 C75.71 1.71, 88.86 -0.79, 102.77 -0.49 C116.68 -0.19, 139.04 6.23, 147.15 8.12 C155.26 10.01, 152.02 9.54, 151.42 10.86 M150.76 9.31 C162.91 13.11, 175.41 22.49, 184.32 31.55 C193.22 40.62, 200.44 52.47, 204.21 63.7 C207.98 74.93, 208.27 87.61, 206.93 98.94 C205.6 110.26, 202.43 121.52, 196.19 131.64 C189.95 141.77, 179.79 152.01, 169.5 159.7 C159.22 167.39, 146.94 174.48, 134.47 177.78 C121.99 181.08, 107.68 180.58, 94.64 179.49 C81.6 178.4, 67.73 176.18, 56.24 171.24 C44.75 166.31, 34.36 158.6, 25.7 149.88 C17.03 141.17, 8.42 129.98, 4.26 118.93 C0.1 107.89, -0.47 95.33, 0.76 83.59 C1.99 71.86, 5.54 58.87, 11.65 48.53 C17.75 38.19, 27.3 28.75, 37.4 21.55 C47.51 14.35, 59.79 8.72, 72.29 5.35 C84.8 1.97, 99.12 0.42, 112.44 1.32 C125.75 2.21, 145.77 8.83, 152.16 10.72 C158.55 12.6, 151.45 11.62, 150.78 12.65" stroke="#f08c00" stroke-width="2" fill="none"></path></g><g transform="translate(1501.5989126814432 873.6119320952919) rotate(0 50.329986572265625 35)"><text x="50.329986572265625" y="0" font-family="Virgil, Segoe UI Emoji" font-size="28px" fill="#f08c00" text-anchor="middle" style="white-space: pre;" direction="ltr" dominant-baseline="text-before-edge">1 Tesla</text><text x="50.329986572265625" y="35" font-family="Virgil, Segoe UI Emoji" font-size="28px" fill="#f08c00" text-anchor="middle" style="white-space: pre;" direction="ltr" dominant-baseline="text-before-edge">Stock</text></g><g stroke-linecap="round" transform="translate(1530.5634698646613 921.3714414371791) rotate(0 103.91202054666098 90.29493644782724)"><path d="M145.95 8.61 C157.82 11.9, 169.12 19.92, 178.45 28.13 C187.78 36.34, 197.12 46.96, 201.91 57.9 C206.7 68.83, 207.74 82.21, 207.2 93.73 C206.66 105.25, 203.98 116.56, 198.65 127 C193.32 137.44, 184.78 148.6, 175.22 156.4 C165.67 164.19, 153.65 169.87, 141.3 173.76 C128.95 177.65, 114.51 179.83, 101.14 179.73 C87.76 179.63, 73.32 177.74, 61.06 173.18 C48.79 168.62, 36.5 160.94, 27.54 152.36 C18.58 143.79, 11.98 132.38, 7.31 121.72 C2.64 111.06, -0.65 99.92, -0.47 88.4 C-0.3 76.88, 2.99 63.38, 8.36 52.6 C13.73 41.82, 22.04 31.39, 31.76 23.72 C41.49 16.06, 54.22 10.59, 66.72 6.6 C79.22 2.62, 92.84 -0.76, 106.77 -0.17 C120.71 0.43, 142.3 7.95, 150.32 10.19 C158.34 12.43, 155.41 12.04, 154.87 13.28 M105.23 0.07 C117.35 -1.33, 130.81 3.13, 142.66 7.66 C154.51 12.19, 166.59 19.27, 176.33 27.22 C186.07 35.18, 195.83 44.82, 201.1 55.38 C206.38 65.95, 207.98 78.77, 207.99 90.61 C207.99 102.45, 206.04 115.91, 201.13 126.41 C196.22 136.91, 188.33 145.57, 178.52 153.62 C168.71 161.68, 154.92 170, 142.27 174.73 C129.62 179.47, 115.73 182.06, 102.63 182.03 C89.53 182.01, 75.79 179.27, 63.67 174.58 C51.55 169.88, 39.37 162.1, 29.89 153.85 C20.4 145.6, 11.49 135.84, 6.76 125.09 C2.02 114.33, 1.12 100.81, 1.48 89.33 C1.84 77.86, 4 66.66, 8.92 56.24 C13.84 45.82, 21.94 35.17, 31 26.79 C40.06 18.42, 51.28 10.34, 63.3 5.99 C75.33 1.64, 96.52 1.61, 103.16 0.68 C109.8 -0.26, 102.87 -0.84, 103.16 0.38" stroke="none" stroke-width="0" fill="#ffec99"></path><path d="M119.71 0.14 C132.57 0.31, 147.32 6.12, 158.74 12.39 C170.16 18.66, 180.41 28.13, 188.21 37.76 C196.01 47.38, 202.36 59.02, 205.56 70.14 C208.75 81.27, 209.5 93.44, 207.38 104.52 C205.26 115.6, 199.95 126.91, 192.83 136.64 C185.71 146.36, 175.49 155.98, 164.67 162.87 C153.85 169.76, 140.66 175.33, 127.93 177.95 C115.19 180.58, 101.23 180.45, 88.26 178.6 C75.29 176.75, 61.36 172.77, 50.12 166.85 C38.87 160.94, 28.72 152.44, 20.78 143.09 C12.84 133.74, 5.83 121.8, 2.49 110.75 C-0.85 99.7, -1.32 87.92, 0.76 76.79 C2.84 65.65, 7.88 53.93, 14.98 43.94 C22.08 33.96, 32.48 23.79, 43.38 16.88 C54.28 9.97, 65.9 4.96, 80.36 2.48 C94.81 0, 120.26 1.3, 130.12 2 C139.98 2.7, 139.77 5.11, 139.5 6.67 M78.5 4.39 C90.15 0.32, 104.12 0.61, 117.12 2.07 C130.12 3.53, 144.92 7.63, 156.49 13.16 C168.07 18.69, 178.49 26.19, 186.55 35.24 C194.61 44.29, 201.47 56.07, 204.84 67.44 C208.22 78.8, 208.67 91.88, 206.78 103.42 C204.89 114.95, 200.05 126.77, 193.5 136.65 C186.94 146.53, 177.94 155.72, 167.45 162.7 C156.97 169.68, 143.3 175.88, 130.61 178.52 C117.92 181.17, 104.26 180.21, 91.31 178.56 C78.37 176.91, 64.74 173.97, 52.94 168.61 C41.13 163.24, 28.61 155.35, 20.47 146.36 C12.33 137.37, 7.17 125.81, 4.1 114.65 C1.03 103.5, 0.45 91.12, 2.03 79.42 C3.61 67.71, 7.15 54.67, 13.57 44.45 C19.98 34.22, 29.94 25.17, 40.53 18.09 C51.12 11.01, 70.85 4.17, 77.09 1.96 C83.33 -0.25, 77.27 3.24, 77.96 4.81" stroke="#f08c00" stroke-width="2" fill="none"></path></g><g transform="translate(1584.1686094637168 976.8182160159392) rotate(0 50.329986572265625 35)"><text x="50.329986572265625" y="0" font-family="Virgil, Segoe UI Emoji" font-size="28px" fill="#f08c00" text-anchor="middle" style="white-space: pre;" direction="ltr" dominant-baseline="text-before-edge">1 Tesla</text><text x="50.329986572265625" y="35" font-family="Virgil, Segoe UI Emoji" font-size="28px" fill="#f08c00" text-anchor="middle" style="white-space: pre;" direction="ltr" dominant-baseline="text-before-edge">Stock</text></g><g stroke-linecap="round" transform="translate(1634.378972470076 1035.4879970322488) rotate(0 103.91202054666098 90.29493644782701)"><path d="M89.31 0.94 C101.71 -1.9, 117.75 -0.18, 130.53 2.59 C143.32 5.37, 155.41 10.55, 166.02 17.61 C176.63 24.66, 187.49 35.02, 194.17 44.94 C200.85 54.85, 204.25 65.96, 206.1 77.09 C207.96 88.22, 208.5 100.33, 205.29 111.71 C202.09 123.09, 194.99 136.1, 186.88 145.38 C178.77 154.66, 167.86 161.71, 156.62 167.41 C145.39 173.11, 132.59 177.87, 119.48 179.59 C106.36 181.3, 90.82 180.5, 77.91 177.72 C65.01 174.93, 52.75 169.77, 42.03 162.9 C31.31 156.02, 20.56 146.51, 13.59 136.47 C6.62 126.44, 1.86 114.26, 0.22 102.68 C-1.42 91.11, 0.29 78.06, 3.73 67.05 C7.17 56.03, 13.1 45.76, 20.84 36.6 C28.59 27.44, 37.73 18.25, 50.22 12.08 C62.72 5.92, 87.47 1.44, 95.83 -0.4 C104.19 -2.23, 100.51 -0.54, 100.39 1.05 M137.67 5.81 C150.27 8.18, 164.11 15.47, 174.35 23.01 C184.58 30.56, 193.54 40.4, 199.09 51.06 C204.65 61.72, 207.05 75.27, 207.69 86.97 C208.33 98.66, 207.31 110.87, 202.91 121.25 C198.51 131.62, 190.2 141.05, 181.27 149.24 C172.35 157.43, 161.27 165.02, 149.38 170.39 C137.5 175.77, 123.43 180.62, 109.97 181.49 C96.51 182.36, 81.22 179.38, 68.62 175.61 C56.03 171.83, 43.94 166.33, 34.4 158.84 C24.86 151.35, 17.22 141.47, 11.39 130.68 C5.55 119.89, 0.13 105.98, -0.63 94.09 C-1.4 82.21, 2.02 70.08, 6.8 59.38 C11.59 48.67, 19.19 38.32, 28.07 29.86 C36.95 21.39, 48.38 13.71, 60.09 8.59 C71.8 3.47, 85.18 -0.53, 98.34 -0.86 C111.51 -1.19, 132.61 5.2, 139.08 6.62 C145.56 8.05, 137.75 6.49, 137.22 7.7" stroke="none" stroke-width="0" fill="#ffec99"></path><path d="M115.05 0.7 C127.59 0.69, 142.27 6.35, 154.16 11.94 C166.05 17.53, 178.05 25.35, 186.39 34.23 C194.73 43.1, 200.74 54.16, 204.21 65.18 C207.68 76.19, 208.98 88.71, 207.22 100.32 C205.46 111.93, 200.29 124.66, 193.66 134.83 C187.02 145.01, 177.56 154.2, 167.4 161.36 C157.25 168.51, 145.18 174.53, 132.74 177.77 C120.29 181.01, 105.94 182.2, 92.71 180.81 C79.47 179.43, 65.17 175.27, 53.3 169.46 C41.44 163.65, 29.83 155.11, 21.52 145.98 C13.21 136.85, 6.93 125.61, 3.44 114.69 C-0.05 103.76, -0.92 91.73, 0.56 80.42 C2.04 69.1, 5.9 56.79, 12.33 46.79 C18.75 36.79, 28.58 27.69, 39.08 20.4 C49.58 13.11, 61.16 6.22, 75.34 3.04 C89.52 -0.14, 114.47 0.97, 124.14 1.31 C133.82 1.65, 133.49 3.42, 133.38 5.07 M85.9 -0.06 C97.93 -3.47, 113.76 -1.44, 126.96 1.23 C140.16 3.89, 154.45 9.14, 165.1 15.94 C175.75 22.73, 183.88 31.97, 190.87 41.98 C197.85 51.99, 204.39 64.75, 207.03 75.98 C209.66 87.21, 209.5 98.25, 206.69 109.36 C203.89 120.46, 197.89 133.06, 190.2 142.6 C182.5 152.13, 171.98 160.37, 160.53 166.56 C149.09 172.75, 134.67 177.78, 121.51 179.73 C108.34 181.69, 94.24 180.93, 81.53 178.3 C68.82 175.66, 55.99 170.42, 45.26 163.91 C34.54 157.39, 24.36 148.86, 17.17 139.19 C9.99 129.52, 4.46 117.12, 2.17 105.9 C-0.12 94.68, 0.86 82.89, 3.45 71.84 C6.03 60.79, 10.16 49.37, 17.67 39.6 C25.17 29.83, 36.85 19.49, 48.46 13.22 C60.07 6.95, 80.8 3.47, 87.33 1.97 C93.86 0.48, 87.35 2.94, 87.62 4.23" stroke="#f08c00" stroke-width="2" fill="none"></path></g><g transform="translate(1687.9841120691315 1090.934771611009) rotate(0 50.329986572265625 35)"><text x="50.329986572265625" y="0" font-family="Virgil, Segoe UI Emoji" font-size="28px" fill="#f08c00" text-anchor="middle" style="white-space: pre;" direction="ltr" dominant-baseline="text-before-edge">1 Tesla</text><text x="50.329986572265625" y="35" font-family="Virgil, Segoe UI Emoji" font-size="28px" fill="#f08c00" text-anchor="middle" style="white-space: pre;" direction="ltr" dominant-baseline="text-before-edge">Stock</text></g><g stroke-linecap="round" transform="translate(1932.2674266936315 700.6897813935741) rotate(0 103.91202054666098 90.29493644782724)"><path d="M64.38 6.16 C75.54 0.61, 92.42 -0.9, 105.86 -0.59 C119.3 -0.28, 132.83 3.39, 145.03 8.02 C157.23 12.65, 169.69 19.12, 179.06 27.2 C188.44 35.28, 196.64 45.82, 201.29 56.5 C205.95 67.18, 207.39 79.64, 206.99 91.3 C206.59 102.96, 204 115.99, 198.9 126.47 C193.79 136.96, 185.82 146.32, 176.37 154.2 C166.91 162.08, 154.41 169.26, 142.19 173.77 C129.97 178.27, 116.12 181.38, 103.05 181.23 C89.98 181.08, 76.05 177.35, 63.77 172.87 C51.49 168.39, 38.8 162.57, 29.35 154.35 C19.9 146.12, 11.84 134.41, 7.06 123.52 C2.28 112.64, 0.36 100.52, 0.68 89.01 C0.99 77.51, 3.99 65.17, 8.96 54.48 C13.92 43.79, 18.83 33.5, 30.46 24.86 C42.09 16.21, 68.02 6.45, 78.74 2.62 C89.46 -1.21, 94.32 0.51, 94.77 1.89 M147.02 7.92 C159.23 11.47, 172.96 22.14, 181.94 30.55 C190.92 38.95, 196.79 47.77, 200.89 58.33 C205 68.89, 206.99 82.37, 206.57 93.89 C206.15 105.41, 203.79 116.91, 198.35 127.46 C192.91 138.01, 183.72 149.02, 173.94 157.19 C164.16 165.36, 152.09 172.83, 139.65 176.46 C127.22 180.1, 112.44 179.61, 99.35 179.01 C86.27 178.41, 73.38 177.37, 61.14 172.87 C48.91 168.37, 35.12 160.56, 25.94 152.01 C16.76 143.46, 10.56 132.42, 6.06 121.6 C1.57 110.77, -1.56 98.68, -1.02 87.05 C-0.47 75.43, 3.28 62.33, 9.32 51.85 C15.36 41.37, 25.6 31.87, 35.22 24.18 C44.84 16.49, 55.01 9.5, 67.06 5.69 C79.1 1.87, 94.21 0.86, 107.51 1.29 C120.8 1.73, 140.29 6.76, 146.85 8.29 C153.4 9.82, 147.34 8.83, 146.82 10.47" stroke="none" stroke-width="0" fill="#ffec99"></path><path d="M57.08 8.69 C67.39 2.46, 82.47 0.08, 95.82 -0.59 C109.17 -1.26, 124.48 1.03, 137.18 4.67 C149.88 8.32, 162.03 13.68, 172.05 21.3 C182.07 28.93, 191.38 39.83, 197.32 50.42 C203.25 61, 206.69 73.45, 207.65 84.83 C208.62 96.21, 207.33 107.95, 203.11 118.69 C198.9 129.44, 191.29 140.61, 182.37 149.32 C173.45 158.02, 161.49 165.75, 149.6 170.93 C137.7 176.12, 124.09 179.44, 111.01 180.43 C97.93 181.42, 83.48 180.49, 71.12 176.85 C58.75 173.22, 46.76 166.36, 36.82 158.62 C26.87 150.88, 17.42 140.88, 11.46 130.4 C5.5 119.92, 2.19 107.24, 1.05 95.75 C-0.08 84.25, 0.64 72.1, 4.65 61.41 C8.66 50.71, 13.78 40.99, 25.12 31.58 C36.47 22.16, 62.36 9.64, 72.7 4.93 C83.03 0.22, 86.58 1.89, 87.12 3.33 M138.12 3.71 C150.83 5.54, 162.93 13.51, 172.76 21.35 C182.6 29.2, 191.58 40.05, 197.15 50.77 C202.72 61.48, 205.15 74.25, 206.19 85.63 C207.22 97.01, 207.47 108.51, 203.35 119.02 C199.23 129.53, 190.18 140.14, 181.46 148.71 C172.73 157.28, 162.71 165.19, 151.02 170.44 C139.32 175.69, 124.45 179.25, 111.28 180.2 C98.11 181.15, 84.54 179.95, 71.99 176.14 C59.44 172.33, 46.03 164.83, 35.98 157.35 C25.94 149.86, 17.88 141.35, 11.72 131.22 C5.57 121.09, 0.16 108.03, -0.96 96.56 C-2.08 85.1, 0.81 73.38, 5.01 62.43 C9.21 51.47, 15.32 39.66, 24.23 30.84 C33.14 22.02, 46.24 14.54, 58.46 9.49 C70.67 4.44, 84.49 1.35, 97.52 0.52 C110.55 -0.3, 130.07 3.61, 136.64 4.53 C143.21 5.44, 137.24 4.38, 136.93 6" stroke="#f08c00" stroke-width="2" fill="none"></path></g><g transform="translate(1985.8725662926868 756.1365559723347) rotate(0 50.329986572265625 35)"><text x="50.329986572265625" y="0" font-family="Virgil, Segoe UI Emoji" font-size="28px" fill="#f08c00" text-anchor="middle" style="white-space: pre;" direction="ltr" dominant-baseline="text-before-edge">1 Tesla</text><text x="50.329986572265625" y="35" font-family="Virgil, Segoe UI Emoji" font-size="28px" fill="#f08c00" text-anchor="middle" style="white-space: pre;" direction="ltr" dominant-baseline="text-before-edge">Stock</text></g><g stroke-linecap="round"><g transform="translate(1953.667270597799 1305.8084464453016) rotate(0 51.668161365639435 -98.25553167473299)"><path d="M0 0 C6.11 -19.85, 19.43 -86.37, 36.65 -119.13 C53.87 -151.88, 92.22 -183.61, 103.34 -196.51 M0 0 C6.11 -19.85, 19.43 -86.37, 36.65 -119.13 C53.87 -151.88, 92.22 -183.61, 103.34 -196.51" stroke="#1971c2" stroke-width="4" fill="none"></path></g><g transform="translate(1953.667270597799 1305.8084464453016) rotate(0 51.668161365639435 -98.25553167473299)"><path d="M92.88 -173.8 C95.03 -178.47, 97.18 -183.14, 103.34 -196.51 M92.88 -173.8 C96.3 -181.23, 99.72 -188.65, 103.34 -196.51" stroke="#1971c2" stroke-width="4" fill="none"></path></g><g transform="translate(1953.667270597799 1305.8084464453016) rotate(0 51.668161365639435 -98.25553167473299)"><path d="M80.73 -185.83 C85.38 -188.03, 90.03 -190.22, 103.34 -196.51 M80.73 -185.83 C88.12 -189.32, 95.51 -192.82, 103.34 -196.51" stroke="#1971c2" stroke-width="4" fill="none"></path></g></g><mask></mask></svg>